<?xml version="1.0" standalone="no"?><!DOCTYPE svg PUBLIC "-//W3C//DTD SVG 1.1//EN" "http://www.w3.org/Graphics/SVG/1.1/DTD/svg11.dtd"><svg t="1694159419525" class="icon" viewBox="0 0 1024 1024" version="1.1" xmlns="http://www.w3.org/2000/svg" p-id="4260" xmlns:xlink="http://www.w3.org/1999/xlink" width="200" height="200"><path d="M265.4 512c0 136 110.6 246.7 246.6 246.7S758.6 648.1 758.6 512c0-136-110.7-246.6-246.6-246.6C376 265.3 265.4 376 265.4 512z m34.3 106.7c-16.2-32.1-25.3-68.4-25.3-106.7 0-19.9 2.5-39.2 7.1-57.6h35.3V422h65.3v32.3h25.1v26.6h14.2v10.5h-31v-17.1h-23.6v-24.6h-35.7v24.6h-31.5v144.4z m98.6-83v37.7h-28.4v-37.7h28.4zM714 637.1H592v9h116.1C665.3 708.6 593.3 749.7 512 749.7s-153.3-41.1-196.1-103.6h115.7v-9H310c-1.9-3.1-3.8-6.3-5.6-9.5h127.2l17.4-7.9h125.7l17.4 7.9h127.6c-1.9 3.2-3.8 6.3-5.7 9.5zM572.9 500.8l-12.4-71.6h14.9L592 492v8.9h-19.1z m19.1 8.9v109.7l-12.1-5.5V509.7H592z m-27.2-8.9h-21.2l-6.1-71.6h14.9l12.4 71.6z m8 14.3v95.5l-38.3-17.5v-78h38.3z m-57.7-14.3v-71.6h15l6 71.6h-21z m12.2 8.9V597.9l31.7 14.5h-94.4l31.7-14.5V509.7h31z m-18.9-8.9h-21l6-71.6h15v71.6z m-19.2 14.3v78l-38.4 17.5v-95.5h38.4z m-9.3-14.3h-21.2l12.3-71.6h15l-6.1 71.6z m-29.4 0h-19v-9.5l16.4-62.1h14.9l-12.3 71.6z m-6.8 8.9v104.2l-12.1 5.5V509.7h12.1z m181.6 63.7v-37.7h28.5v37.7h-28.5zM749.6 512c0 38.7-9.3 75.2-25.7 107.5V474.3h-31.5v-24.6h-35.7v24.6h-23.6v17.1h-30.9V481h14.2v-26.6h25.1V422h65.3v32.3h35.7c4.7 18.5 7.1 37.8 7.1 57.7z m-11.2-72.4H712v-18.5l0.2-2.3c0.4-2.7 2.2-5.5 3.8-7.3 3.1-3.8 3.7-6.6 3.9-8.8v-0.4c0-1.5-1.3-2.8-2.9-2.8-1.6 0-2.9 1.3-2.9 2.8 0 1 0.6 2 1.5 2.5-1.4 2.5-4.1 2.5-6.7 2.5h-69.3c-2.6 0-5.3 0-6.8-2.5 0.9-0.5 1.5-1.4 1.5-2.5 0-1.6-1.3-2.8-2.9-2.8-1.6 0-2.9 1.3-2.9 2.8v0.4c0.2 2.2 0.8 5 3.9 8.8 1.5 1.9 3.4 4.6 3.7 7.3l0.2 2.3v18.6h-22c-2.6 0-5.3 0-6.8-2.5 0.9-0.5 1.5-1.4 1.5-2.5 0-1.6-1.3-2.9-2.9-2.9-1.6 0-2.9 1.3-2.9 2.9v0.4c0.2 2.2 0.8 5 3.9 8.8 1.5 1.9 3.4 4.6 3.7 7.3l0.2 2.3v12.7h-14.4L587 429v-0.2s5-2.5 7-4.4l1-4.6c5-3.8 11.2-10.1 11.2-10.1l-2.6-2.6s-5.4 4.1-10.4 6.4c-4.7 2.2-10.1 4.5-14.8 4.7H445c-4.7-0.2-10.1-2.4-14.8-4.7-5-2.3-10.4-6.4-10.4-6.4l-2.6 2.6s6.2 6.3 11.2 10.1l1 4.6c2 1.9 7 4.4 7 4.4v0.1l-9.9 37.3h-14.2v-12.8l0.2-2.3c0.3-2.7 2.2-5.5 3.7-7.3 3.2-3.8 3.8-6.6 3.9-8.8v-0.4c0-1.6-1.3-2.9-2.9-2.9-1.6 0-2.8 1.3-2.8 2.9 0 1 0.6 2 1.5 2.5-1.5 2.5-4.1 2.5-6.8 2.5h-22V421l0.2-2.3c0.3-2.7 2.2-5.5 3.7-7.3 3.1-3.8 3.7-6.6 3.9-8.8v-0.4c0-1.6-1.3-2.8-2.9-2.8-1.6 0-2.8 1.3-2.8 2.8 0 1 0.5 2 1.4 2.5-1.4 2.5-4.1 2.5-6.8 2.5h-69.3c-2.6 0-5.2 0-6.7-2.5 0.9-0.5 1.5-1.4 1.5-2.5 0-1.6-1.3-2.8-2.9-2.8-1.6 0-2.8 1.3-2.8 2.8v0.4c0.2 2.2 0.8 5 3.9 8.8 1.5 1.9 3.4 4.6 3.7 7.3l0.2 2.5v18.4h-26c6.4-20 15.4-38.8 26.5-56.1 11-1.1 33.4-4.3 61.9-13.1 24.2-7.4 47.4-16.3 73.8-27.8l26 17.9 37.9-26 37.9 26 26.1-17.9c26.4 11.5 49.6 20.4 73.8 27.8 28.9 8.9 51.6 12.1 62.4 13.2 11.3 17.3 20.3 36.1 26.7 56zM512 274.4c81.3 0 153.2 41 196 103.5-10.1-1.1-28.7-4.2-53.5-12.5-41.8-14-79.8-35.1-79.8-35.1l-24.4 19.9-38.6-34.5-38.6 34.5-24.4-19.9s-37.9 21.1-79.8 35.1c-24.5 8.2-42.9 11.3-53 12.5 43-62.5 114.8-103.5 196.1-103.5z" fill="#CF111B" p-id="4261"></path><path d="M578.7 637.1H444.6l-13.3 72.4h161L579 637.1h-0.3z m-128.2 7.1h122.6l2.7 14.6h-128l2.7-14.6z m133.3 58.1h-144l2.7-14.6h138.6l2.7 14.6z m-140-21.7l2.7-14.6h130.6l2.7 14.6h-136zM787.9 634.9l6.7-15.7-1.4-0.7c-1.8 3.1-2.4 4-7.4 1.8l-11-4.7-15-16.7c-1.6-1.9-1.3-3.2-1-4.1l-1.5-0.7-4.4 9.8 1.5 0.8c1.2-2.1 2-3.7 4.4-2.7 1.5 0.8 4.3 3.6 4.9 4.2l8.9 9.8-16.4-0.5c-1.2-0.1-3 0-3.8-0.5-1.8-0.7-1.9-1.4-0.6-4.5l-1.4-0.8-6.5 15.3 1.5 0.6c1.1-2.3 4.2-2.2 5-2.2l23.4 0.4 8.8 3.8c5.1 2.2 4.8 3.3 3.8 6.8l1.5 0.5zM763.4 677.8l9.5-14.8-1.4-0.8c-2.3 2.8-2.9 3.7-7.7 0.7l-29.1-18.6c2.1-2.8 5.1-6.9 14.5-2l0.6-1.3-11.1-7.1-15.9 24.8 10.9 7.3 0.9-1.3c-8.2-6.4-5.8-10.9-4.2-13.9l29 18.7c4.6 3 4.3 4 2.6 7.2l1.4 1.1zM738.6 709.3l11.2-13.2-1.2-0.9c-2 1.8-3.4 3.2-6.7 0.5L717.7 675c-3.4-2.8-1.9-4.7-0.5-6.6l-1.3-1-11.1 13.2 1.4 1.1c1.6-1.7 3.1-3.3 6.4-0.6l24.3 20.5c3.1 2.6 2 4.3 0.5 6.5l1.2 1.2zM718.9 730.8c6.6-6.1 3.5-14-0.4-18.3-4.9-5.2-10.2-5.6-12.2-5.2l-8.4 1.4c-5.1 0.8-6.7 0.3-9.2-2.2-2.8-3.2-2.1-6.5-0.3-8.2 4.4-3.8 11.6-0.4 15.5 2.3l0.9-0.9-9.7-10.4-1.1 1.1c0.6 1 1.1 1.8 0.3 2.7-1 0.9-4.1 0.9-7 3.6-7 6.3-2 13.8 0.7 16.9 2.1 2.1 6 6.3 15.8 4.5l3.9-0.7c3.6-0.6 6.3-1.1 9.4 2.1 0.5 0.7 4.7 5.5 0.5 9.6-4.8 4.2-11.9 0.7-17.1-3.4l-1 0.9 11 11.9 1.1-1c-0.7-0.9-1.2-1.9-0.4-2.6 1.1-1.1 4.2-0.9 7.7-4.1zM688.3 754.1l8.3-5.6-1-1.3c-0.4 0.3-1.1 0.6-2.4 0l-18.6-9.8c1.6-2.4 4.8-6.9 0.2-13.6-6.2-9.2-15.2-3.8-18-1.8l-13.2 8.8 0.9 1.5c2.6-1.5 3.9-2.1 7 2.5l16.3 24c3 4.4 2.2 5.1-0.2 7.3l1 1.4 13.7-9.2-0.9-1.5c-3.1 1.4-3.9 1.8-6.9-2.5l-7.3-10.6 1.1-0.7 20 11.1z m-22.2-12.2l-9.5-13.9c-0.9-1.8-1.2-2.4 1.2-3.9 3.2-2.2 6.5-1 10.2 4.5 4.7 7 3.3 9.6-1.9 13.3zM624.3 787.6l0.8 1.5 26.1-12.2-3.9-13.3-1.3 0.6c1.3 10.3-2.5 13.9-6.9 16-3 1.3-4.2 1-5.4-1.7l-6.6-14.4c4.5-2.1 7.5-1.3 11.5 5.9l1.1-0.5-9.3-20.2-1.1 0.5c2.7 7.7 1.1 10.3-3.3 12.2l-6.3-13.9c-1.1-2.5-0.5-3.1 2-4.2 6-2.8 10-2.8 14.8 5.3l1.1-0.5-5.4-12.1-25.8 12.1 0.6 1.3c2.2-0.7 4.1-1.4 5.9 2.4l13.4 28.9c1.8 4 0.4 4.7-2 6.3zM581.1 758.4l-0.5-1.5-16.1 4.3 0.5 1.6c2.1-0.1 3-0.1 5.2 3.3l22.5 34.6 1.4-0.4 0.5-40.1c0.1-3.9 0.3-5.2 2.9-6.4l-0.4-1.6L587 755l0.3 1.6c2.8-0.5 4.3-0.7 5 1.8 0.3 1.3 0.3 3.1 0.2 4.6l-0.2 22.4-11.7-18.2c-0.9-1.5-2.6-3.8-2.9-5.1-0.7-2.3 0.4-2.5 3.4-3.7zM543.2 807.2l0.1 1.7 17.1-2.3-0.1-1.6c-2.8 0-4.8 0.1-5.3-4.1l-4-31.3c-0.7-4.5 1.7-4.9 3.9-5.3l-0.1-1.7-17.2 2.3 0.2 1.5c2.2 0 4.6-0.2 5.1 4.1l4.3 31.4c0.4 4.1-1.5 4.7-4 5.3zM500 776l21.7 35.5h1.3l0.2-38.6c0-3 0.2-4.6 3.9-5.1V766h-10.6v1.6c4 0.4 4.5 2.6 4.5 6.6l-0.1 19.8-17-28h-10.4v1.6c0.8 0 1.4 0.3 4.3 4.7l-0.2 31.1c0 4.4-1.4 4.8-4.2 5.2v1.7h11v-1.6c-3.6-0.5-4.5-1.8-4.5-6.5l0.1-26.2zM449.3 789.2c-1.2 7-0.5 9.5 1.3 12.2 2.5 4.2 7 5.3 9.1 5.8 2.9 0.5 7.3 0 10.4-3.1 2.4-2.5 4.2-8.2 4.8-12.1l3.4-20.6c0.9-4.2 2.1-4.7 4.9-4.8l0.3-1.6-10.7-1.9-0.3 1.6c4.2 1.1 4.2 3.3 3.8 7.3l-3.5 19.6c-0.7 4.3-2.5 14-11 12.5-7-1.2-5.5-10.1-4.8-13.7l3.8-21.5c0.9-5.8 2.4-5.5 5.6-5.2l0.3-1.6-16.3-2.8-0.3 1.6c2.6 1 3.8 1.2 2.8 6.6l-3.6 21.7zM372.3 737.7h0.1l1.9 41.8 1.3 0.5 18.6-33.7c1.6-2.7 2.6-4 6.1-2.7l0.7-1.5-9.4-5.2-0.6 1.4c3.2 2.3 2.7 4.5 0.8 8l-9.6 17.3-0.1-0.1-1.4-32.6-9-5.1-0.9 1.5c0.6 0.2 1.1 0.8 1.3 6.1l-15 27.1c-2.1 3.9-3.5 3.7-6.3 2.6l-0.9 1.5 9.8 5.4 0.8-1.5c-2.9-2.2-3.2-3.7-0.9-7.9l12.7-22.9zM350.4 709.1l-1-0.8-30.9 21.3c-4.2 3-6.1 4.2-8.6 3.1l-1 1.2 7.9 6.2 1.1-1.3c-1.3-1.1-3-2.7-1.4-4.7 0.7-0.8 2.9-2.5 6.9-5.3l8.7 7c-0.7 2-2.6 6.8-3.6 8.3-1.3 1.7-2.1 1.1-4.7-0.5l-1 1.3 12.6 9.8 0.9-1.2c-1.9-1.5-1.1-3.5 1.5-10.5l12.6-33.9zM333 733.2l-7.5-5.9 13.6-9.6-6.1 15.5zM293.8 721.2l28.6-26c2.4-2.2 3.6-3 6.6-0.7l1.2-1.1-7.1-7.9-1.3 1.1c2.5 3.3 1.3 5.1-1.7 7.8l-14.7 13.3h-0.2l9.3-31.5-7.1-7.7-1.2 1.2c0.5 0.4 0.8 1.2-0.6 6.2l-23 21c-3.1 2.8-4.4 2.2-6.9 0.2l-1.1 1.1 7.4 8.2 1.3-1.1c-2.1-3-1.8-4.7 1.6-7.8l19.4-17.7 0.1 0.1-11.5 40.2 0.9 1.1zM263.5 677.3c3.6 0 9-2.6 12.2-4.6l17.6-11.4c3.7-2.4 4.8-1.7 6.8 0.2l1.3-0.8-5.9-9.1-1.3 0.8c1.9 3.7 0.5 5.5-2.9 7.6l-16.9 10.8c-3.5 2.3-12 7.6-16.7 0.3-3.9-5.9 3.8-10.8 6.8-12.8l18.6-11.9c4.8-3 5.7-1.8 7.5 0.9l1.5-1-9.1-13.9-1.4 0.9c1.1 2.4 1.7 3.6-2.9 6.6l-18.4 11.8c-6 3.8-7.2 6.2-8.1 9.3-1.4 4.7 0.7 8.8 2 10.6 1.6 2.4 5.1 5.4 9.3 5.7zM241.8 634.6l29.2-12.3c4.1-1.6 5.1 0.3 6.1 2.1l1.5-0.7-6.6-15.4-1.6 0.7c0.7 2 1.5 4.1-2.5 5.8l-12.5 5.3-4.6-10.9 12.5-5.4c4-1.7 5 0.4 6.1 2.3l1.4-0.6-6.4-15.3-1.6 0.5c0.6 2.2 1.3 4.1-2.6 5.7L231.1 609c-3.6 1.5-4.4 0.2-5.9-2.2l-1.5 0.7 6.4 15.3 1.4-0.7c-0.7-2.4-1.1-4.3 2.6-5.8l14-5.9 4.7 10.9-14 5.9c-3.7 1.6-4.7 0-6-2.2l-1.4 0.6 6.4 15.4 1.5-0.7c-0.6-2.5-0.9-4.2 2.5-5.7zM300.3 360.5c-0.5 0.3-0.5 1 0.1 1.3 0.6 0 1.4-0.3 1.9 0.3 0.6-0.7 1.1 0 1.7 0.1 1.2 0 2.5 0.3 3.6 0.3 1.1 0.4 2.6 0.2 2.6-1.4 0-6.1-4.5-10.7-8.4-15.2-2.6-2.7-5.7-4.7-8.7-6.6-0.3-0.2-0.1-0.7 0-0.8-0.1-0.7-0.8 0.2-1.1-0.3-2.6-2.7-5.4-5-7.8-7.8-3.1-3.1-6.8-5.2-8.9-9.2 0.1-0.2 0.2-0.4 0.4-0.3 0.9 0.7 1.5 1.3 2 1.8 2.7 3.3 5.3 7.2 10 7.5 1.6 0.1 3.2-1 4.5-2.2 0.3-0.3-0.1-1.4-1-1.5-0.5 0.3-1.3 0-1.5 0.1-1.8-0.3-3.8 0.4-4.8-1-1.1-1.5-1.9-3.3-2.7-5.1 0-0.2-0.1-1 0-1.5-0.1-0.6-1.1-1.1-1.3-1.5-0.5-1-1.3-1.7-2.7-2.1-0.6-0.1-1-0.2-1.3-0.6-0.5-0.3-0.5 0.5-0.9 0.4-0.4-0.8-1.2 0-1.9-0.2-1.2-0.4-2.4 0.4-3.9 0.9-1.1 0.2-2.2 1.2-3.4 1.7-1 0.3-1.7 1.3-1.8 2.4 2.6-0.2 5.4-1.5 7.9-0.6 0.1 0.1 0 0.4-0.2 0.4-0.1 0.3-0.3 0.2-0.5 0-0.3 0.5-0.9 0.8-1.1 1.4 0.1 1.2-1.2 2.4-0.7 3.5 0.4 1.4 2.5 2.3 3.3 3.8 1.7 2.9 3.5 6.4 4.2 9.9-2.5-0.6-3.6-4.5-6.6-3.3-0.9 0.4-1.5 1.4-1.8 2.5-0.5 2.4 0.8 4.7 0.9 7.3 0.4 2.1 1.2 4.1 2.1 6 0.4 0.9 0.5 2.6 0.4 3.6 0 0.5-0.3 1.2 0.2 1.8 1.1 1.1 2.3 1.8 3.8 1.8 1.8 0.1 3-0.8 2.8-2.1 0.2-0.5-0.4-1.2-0.7-2-0.1-0.5-1.1-0.9-0.7-1.9-1.1-0.5-1.1-1.7-2.1-2.3-0.3-0.3-0.1-0.6-0.1-0.6-1.3-2.6-2.7-4.7-4.1-6.9-0.2-0.6 0-1.4 0-2 4.5 1.8 6.6 7 8.8 11.4 0.8 1.1 1.9 1.6 3.2 1.9 0.8 0 1.6-0.4 2.3-0.4 0.6 0.2 0.7-0.7 1.5-0.7 0.6-0.2 1-1.1 0.9-1.3-0.3-1.2-1.5-2-1.8-3.2-0.4-0.5-0.9-0.6-1.3-0.8-0.1-0.3-0.1-0.6 0-0.8-0.3-0.4-0.9-0.7-0.6-1.5 0 0-0.5-0.3-0.6-0.4-0.2-0.3 0-0.6 0.2-0.9 0-0.3-0.9-0.3-0.9-0.6-0.7-4.2-3.5-7-4.9-10.8 6.8 5.6 12.8 11.4 18.9 17.9 2.2 2.2 4.3 4.4 5.9 7.2 0.6 1.5-1.3 2.9-3.3 3.2zM232.2 331.5c-1.2-2.1-3.5-3.4-6-4.3-1.1-0.4-2.5-1.4-3.8-1-0.6 0-1-0.1-1.6 0.1-0.1-0.1-0.5-0.4-0.7-0.4-1.9 0.3-3.8 0.5-5.6 1.3-0.1 0.2-0.4 0.6-0.5 0.8 3.5 2.2 7.1 3.6 11.1 5 2.5 1 4.7 2.2 6.5 3.8 1.8 1.8 2.2 4 4 5.9 0-0.9 0-1.7 0.2-2.5 0-1.3-0.7-2.3-0.9-3.7-0.5-1.8-1.6-3.5-2.7-5z" fill="#CF111B" p-id="4262"></path><path d="M260.5 313c0.4-2.5-2.4-4.5-4.8-5.4-0.7-0.1-1.3 0.9-1.8 0.5-0.6 0.6-1.4 0.8-1.8 1.1-3.5 0.8-7 1.3-10.6 1.3-1.2 0-2-0.5-3-1-1.6-0.5-2.5 0.3-3 1.5-0.4 0.9 0.4 1.6 0.7 2 4.8 6.2 9.3 12.1 15.2 17.1 0.2 5.9-0.9 11.5 0.4 17.4 0 1.2-0.2 2.6 0.4 3.6 0.3 1.2 1 2.5 2.3 2.6 1.4 0.5 3.1 0.5 4.1 1.7 4 4.9 8 9.8 10.4 15.5-5.7-2.9-11.6-4.6-17.4-7.2 5.3 8.7 13.9 14.2 21.8 20.1 2.1 1.4 3.3 3.5 5.2 4.9l0.5 0.4c2.1 1.2 4 0.5 6.1-0.4 0.2-0.1 0.5-0.1 1.3-0.4 0.8 0.1 0.9-1.3 0.4-2-1.8-2.1-2.9-4.2-4.7-6.4-1.3-1.6-1.6-3.9-3-5.8-0.4-0.6-1.3-1.3-1.9-1.6-0.5-0.9-1.3-1.8-1.9-2.6-1.5-1.8-2.4-4.1-4.5-5.4-0.4-0.3 0.4-0.5 0-0.9-0.4-0.3-1-0.6-1.4-1 0-1-1-1.6-1.3-2.3-0.2-0.7-1.1-0.8-1.3-1.8 0.1-0.4-1.3-1-1.6-1.7-0.3-1.1-1.3-1.5-1.5-2.2-1.6-2.2-3.9-3.9-5.8-5.7 0.6-2.3 2.3-4.1 2.7-6.4 0.2-0.7 0.5-1.4 0.8-2.2-0.3-3.2-1.1-6.3-1.6-9.8 0-0.4-0.7-0.5-0.6-1 0.3-0.3 0.5-0.4 0.5-0.4s-0.3-0.2-0.6-0.2c0-0.3 0.1-0.6 0.3-0.7-0.7-0.3-0.4-1-0.3-1.2 0.1-0.7-0.6-1.3 0.1-1.9 0.2-0.3-0.5-0.5-0.1-0.8 0.3-0.6 0.1-1.5 0.1-2.2 0.8-3.2 0.9-6.2 1.2-9.1z m-7.7 6.9c-1.5-1.1-2.3-2.8-3.4-4.1-1.5-1.4-3.1-2.5-4.7-3.4 2.7-0.3 6.4 0.1 7.8 3 0.9 1.3-0.3 3.2 0.3 4.5z" fill="#CF111B" p-id="4263"></path><path d="M301.5 319.9c-0.2 0.1-0.3 0.3-0.5 0.2-5.2-3.9-10.5-7.4-15.6-11.4-5.7-4.7-9.6-10.8-14.2-16.6-1.2-1.4-2.4-2.6-4-3.3-2.7-0.6-5.3 1.9-5.5 4.4-0.7 4.6-0.7 8.8-0.4 13.6 0.1 2 0.5 4.2 0.9 6.3 0 1.9-0.7 3.8-0.1 5.6 4.8-5.4 5-13.1 3.9-20 5.6 4.4 10.1 10 15.7 14.4 8.6 6.9 17.8 12.4 25.9 19.8 0.4 0.2-0.3 0.9-0.7 1.5-1.6 1.2-3.4 2.1-5.1 2.9-1.7 0.8-3.8 1-5.2 2.2 0.2 0.1 0.3 0.4 0.6 0.5 0 0 0.2-0.1 0.2-0.5 0.5-0.2 0.6 0.5 1.2 0.5 0 0 0.1-0.1 0.2-0.3 0.8-0.1 1.3 0.3 1.5 0.2 2.1-0.9 4-1.2 6.1-1.8 1.9-0.9 3.9-1.3 5.7-1.1 2.9 0.4 5.6-0.8 7.5-2.7 0.6-0.5-0.4-1.1-0.2-1.6-0.4-0.9-1.2-1.2-2-1.8-1.4-0.6-3-1.3-4.2-2.1-0.2-0.2 0-0.4 0.1-0.6-4.1-2.7-7.9-5.5-11.8-8.3zM385.4 233.2c-1.4 1.2-2.5 2.3-4 3.5-0.1 0.1 0.5 0.6 0.7 0.8 2.2 0 5.1 0 7-1.6 0.3-0.4 1-0.8 1.7-1 0.3-0.2 0.4 0.1 0.4 0.3 2.9-2.1 6-4.4 8.5-7.2 0.2 0 0.7-0.1 0.7 0 0 0.6 0 1.3-0.1 1.9-0.7 1.9-2 3.2-3.2 4.8-0.9 1.8-2 3.4-3.4 5.1-1.2 1.7-1.7 2.9-2.4 4.7-0.7 1.9-1.3 3.8-1.6 5.8-0.2 2.1-0.1 4-0.9 5.9-1.4 3.6-1.5 7.3 0 10.6 0.4 1.3 1.8 1.8 2.7 2.8 0.1-0.1 1-0.1 1.1-0.3 0.3-4.2-1.6-7.9-1.6-12-0.3-1.4-0.2-2.8-0.1-4.3 0.3-1.7 1.2-3.2 2.5-3.9 1.1-0.8 2.2-1.8 2.8-2.7 0.2-0.1 0.4-0.1 0.5-0.1 0-0.3 0-0.4 0.3-0.6 0.4-0.2 0.7-0.5 1-0.4 1.2 0.7 2.1 0.6 3.1 1.3 0.6 0.2 1.2-0.1 1.7-0.3-0.1-0.2-0.2-0.4 0-0.5 0.8-0.2 0.8-1 1.1-0.8 1.2 0.2 0.6 2.3 1.6 3.1 0.7 0.1 1.5-0.3 1.5 0.6-0.2 1.9-0.6 3.8-0.9 5.7 0 0.3-0.6 1-0.7 1.3 0 0.8-0.3 1.5 0 2.6 0.2-0.2 0.5-0.3 0.6 0 0.2 0.9 0.5 2.1 1.4 2.1 1.9-0.2 2.2-2.7 4-3.6 0.2-0.1 0.9 0.2 0.8 0.9-0.3 2 1.3 3.8 2.4 5.2 0.3 0.5 1.2 1.5 1.3 0.5 0.5-4.2-2.2-7.8-1.3-12.2 0.2-0.2 0.7-0.5 0.7-0.5-0.2-1.4 0.3-2.8-0.6-4.1-0.8-0.7-1.1-1.9-2.2-2.3-0.2 0.2-0.8 0-1.1 0.2-0.5-0.2-1.1-1-1.6-0.6-0.3-0.6-1.4-0.4-1.4-1.1 1.6-3 3.3-5.6 4.1-8.9 0.2-1-0.3-1.9-1.4-1.8-2.2-0.1-5.8 0.2-6 3.5-0.1 2.6-2.4 5.3-5.2 6.1-0.3 0.1-0.6 0-0.5-0.4 1.7-2.8 3-5.2 5-7.9 0.1-0.3 0-1 0.1-1.2 0.8-0.3 0.8-1 1.3-1.5 0.4-0.1 0.4-0.9 0.7-1.5 3.5-3.6 7.2-6.4 10.7-9.9 0.4-0.4 1.1-1.1 1.7-1.1 0.4 0.3 0.7-0.1 0.9 0.3 0.7 1.3 2 2.3 1.6 3.6 0 0.8 0.4 1.4 0.4 1.9 0.2 4 1.9 7.8 3.1 11.5 1.2 4.9 2.8 9.9 4.2 14.7 0.6 2.4 1.5 4.7 1.2 7.2-0.4 3.8-5.1 3-7.8 2.3 1.3 2.7 4.8 3 7.5 3.8 1.4 0.4 3 0.4 4.1-0.8 1.3-1.7 0.6-3.9 0.3-5.5-0.2-1.6 0-3.2-0.5-4.8-2.9-7-5.6-14.1-7.9-21.2 0-0.2 0.2-0.3 0.4-0.4-0.2-0.4-0.8 0-0.7-0.6 0.8-1.8-1.3-3.1-0.7-5.3 0.5-0.9-0.6-1.8-0.7-3-0.1-0.3 0.1-0.5 0.5-0.8-0.2-1.2-0.6-2-0.5-3.3 0.1-1.3-0.5-3.2-1.4-4.3-0.3-0.3-0.8-0.9-1.5-0.9-0.9 0.3-2.3 0.2-3.2 0.6-3.4 2.7-6.8 5.5-10.2 8.7 0 0-0.1 0.3-0.3 0.6-1.5 0.9-3 2.8-4.2 4.1-0.4 0.1-0.8 0.2-0.9 0 0.1-0.5 0.2-1.7 1-1.9-0.1-0.1-0.1-0.1-0.1-0.4-0.2-0.2 0.2-0.2 0.5-0.4 0.2-0.3 0.3-0.9 0.6-1.5 0.5-0.7 1.6-1.1 2-1.9 0.9-1.1 1.6-2.4 2.5-3.8 0.5-0.4 1.1-1.4 1.6-2 1.8-2.1 3.7-3.8 4.6-6.2 0.5-1.4-0.6-3-1.9-3-1.5-0.1-2.4-1-3.8-0.5 0.8 1.4 1.5 3.3 0.4 4.6-0.7 0.5-0.7 1-1 1.4-0.8 0.3-0.8 0.8-1.2 1.2-0.6 0.1-1.2 0.6-1.4 0.2-0.1-1.4-0.3-2.9-0.7-4.6-0.3-2.5-0.8-5-1.9-7-0.3-0.9-1.4-3.2-2.6-2.8-0.9 0.6-0.8 2.8-1.1 4.3 0 0.5-0.2 1.2-0.2 1.7-1 3.6-0.9 7-0.6 10.2 0 1.7 1.1 3.7 0.3 4.9-4.2 5.3-9.1 9.8-14.2 14.1zM410 250c0.2-0.3 0.5-0.4 0.7-0.5 0.4-0.1 0.4 0.2 0.4 0.3 0 0.5 0 0.5-0.3 0.7-0.3 0-0.5 0.1-0.5-0.2-0.2-0.1-0.3-0.1-0.3-0.3zM574.8 228.9c-0.4-0.2-0.2 0.6-0.7 0.4-0.3 0-0.5-0.1-0.7-0.1-0.4 0.4-0.3 0.9-0.1 1.2 0.9 0.5 0.8 1.5 1.7 2 0.8 0.5 1.6 1.1 2.4 1.1 1.8-0.2 4-1.1 5.9-0.6 0.3 0.3 0 0.8-0.2 1.3-2.9 3.8-6.4 6.9-8.9 11.1-0.3 0.5-0.7-0.3-0.8 0.2-0.1 0.3-0.2 0.4-0.2 0.7-1.2 0.4-2 1.2-2.8 2.1-2.2 1.5-4.8 2-7.1 3.3 0.7 0.3 1.5 0.3 2.2 0.3 1.7 0 3.6-0.6 5.3-1.4 3.4-1.4 6.6-3.8 10.1-5.9 0.2-0.3 0.3-0.8 0.3-1 0.2-0.4 0.5 0 0.8 0v-0.4c0.4-0.2 0.9 0 0.9 0 0.6-0.6 1.2-1.2 1.6-2.1 0.1-0.1 0.8-0.9 1.2-1.2 2-1.5 2.3-3.7 4.2-5.5 2.1 4.7 4.9 8.8 7 13.9 1.6 3.9 2.5 7.7 4.3 11.6 0.3 0.8 1 1.8 2.2 2.1 1.9 0.4 3.7 0.9 5.4 0.7 0.8-0.3 1.7 0.2 2.7-0.2 0.7-0.4 1.6 0.5 2.4 0.2 0.6 0 1.3 0 1.7-0.6 0.5-0.6 0.8-1.5 0.5-2.2-0.8-1.1-2.2-0.4-3.2-1.1-4.1-2.2-7.3-5.3-10.2-9.2-0.1-0.1-1-0.6-1.1-0.7-3.6-4.9-6.5-9.7-10.4-14.3-0.4-0.6-1-1.8-0.1-2.4 1-0.7 2.6-0.7 4.2-0.9 2-0.7 3.6-1.3 5.3-2 3.2-1.3 6.5-2 9.5-4.2 0.3-0.1 1.1-0.1 1.2-0.4 0.8-0.7 1.4-2 0.9-3-0.6-1.4-1.1-2.9-2.1-4.1-0.7-1.6 0.2-3.8-1.4-4.8-0.4-0.1-0.5 0.5-0.7 0.9 0.3 1.7 0.9 3.6 0.5 5.1-0.2 1.3-0.7 2.4-1.9 3-1.5 0.9-3.2 0.9-4.9 1.4-1.3 0.4-3 0.5-4.2 0.7-0.2-0.1-1.2 0.5-1.2-0.3 0.4-1.2 1.3-2.4 2.2-3.4 1.2-1.4 1.3-3.7 3.2-4.9-0.1-0.2-0.4-0.3-0.3-0.4 3-4.8 5.2-9.6 7-14.7 0.6-1.9 0.5-4.1 0.2-6.3-0.5-1.1-1.4-2.2-2.7-2.2-0.7 0-1.3 0.9-1.5 1.6-3.5 6.3-5.7 12.5-8.4 18.9-1.9 4.4-4.2 8.8-7.1 13.1-1.6 1.9-5 1.9-7.4 2.5-0.9 0.1-2 0.4-2.7 0.4-1.1 0.2-2.8 0.7-4 0.7zM170.6 427.5c4.2-17.5 9.6-35 16.3-51.7l1-2.5-26.3-10.7-1 2.7-2 5.3c-2 5.2-4 10.3-5.7 15.7l-0.9 2.5 16.1 5.4 0.8-2.7c1-3.6 2.4-7.3 3.8-10.7l0.2-0.9-5-1.8-0.3 0.8c-1 2.7-2 5.5-3 8.4-2.2-0.7-3.8-1.2-5.9-1.9 1.5-4.4 3.2-8.7 4.7-12.8 0 0 0.5-1.4 1.1-2.9 3.4 1.4 13.1 5.2 16.3 6.6-6.1 15.2-11.1 31.2-15 47.4-3.5-0.7-13.6-3.1-17.1-3.9 1.2-5.5 2.8-11 4.3-16.4 2.2 0.5 3.8 1.1 5.9 1.8-1.1 3.1-2.6 9.5-2.6 9.5l5.1 1.4 4.2-14.7-16.1-4.7-1.1 3.7c-2 6.9-4 13.8-5.4 20.9l-0.7 2.5 27.6 6.4 0.7-2.7zM191.3 365.7l1-2.4c7.4-16.4 16.3-32.5 26.2-47.5l1.5-2.2-23.8-15.6-1.4 2.2c-4 6-7.8 12.3-11.8 19.2l-1.3 2.3 14.6 8.3 3.6-6.1 4.1-6.7-4.6-2.8-4 7s-0.6 0.8-1 1.5c-1.9-1.1-3.5-2-5.4-3.1 3-5 5.8-9.8 8.8-14.2 3.2 1.9 11.7 7.6 14.7 9.6-8.9 13.9-16.9 28.5-23.8 43.5-3.3-1.4-12.8-5.6-16.2-7.2 0.9-1.8 1.7-3.5 1.7-3.5 2-3.8 3.9-7.8 5.8-11.7 1.9 1 3.6 1.9 5.5 2.9-1.6 3-3.2 5.8-4.5 8.9l4.8 2.2c1.8-3.6 3.7-7.3 5.6-11l1.3-2.4-14.8-7.8-1.2 2.2c-2.6 4.8-5 9.6-7.2 14.4l-4.1 8.5 2.5 1 23.4 10.5zM226.1 304.4c10.6-14.7 22.2-28.7 34.9-41.7l1.8-1.9-20.3-19.8-1.9 1.9c-4.1 4.2-8 8.7-11.9 13l-5 5.6 2.1 1.8 10.7 9.2 7-7.9 3-3.3-4-3.6-3 3.2s-2 2.3-3.6 4.1c-1.6-1.4-2.9-2.6-4.6-4.1 0.7-0.8 1.4-1.5 1.4-1.5 3.2-3.6 6.5-7.2 9.9-10.8 2.6 2.6 10.1 9.8 12.5 12.3-11.3 11.9-22 24.9-31.6 38.3-2.9-2.1-11.5-8.1-14.5-10.2 2.7-3.7 5.3-7.3 8.1-10.8 0 0 1.1-1.4 2.3-2.8 1.7 1.4 3.1 2.4 4.8 3.8-2.2 2.5-6.1 7.8-6.1 7.8l4.4 3.4 9.1-12.1-13.2-10.5-5.5 7.2c-3.3 4.2-6.5 8.6-9.7 13.1l-1.5 2.3 23 16.3 1.4-2.3zM270.7 253.2c13.2-12.7 27.4-24.2 42.1-34.4l2.2-1.5-16.2-23.3-2.2 1.6-4.9 3.4c-4.4 3.2-8.8 6.6-13.1 9.9l-2.1 1.7 10.4 13.2 2-1.8c2.6-2 6.2-4.8 9.8-7.4l-3.1-4.3c-2.9 2-5.6 4.1-7.9 5.9-1.4-1.8-2.4-3-3.8-4.8 3.5-2.8 7.2-5.4 10.8-8.1 0 0 1.2-1 2.6-1.8 2.1 3 8 11.3 10 14.3-13.4 9.5-26.4 20.1-38.6 31.4-2.4-2.5-9.6-10-12.1-12.6 4.4-4.1 8.6-7.9 12.7-11.4 1.4 1.7 2.5 3 3.8 4.7-0.5 0.6-1.3 1.2-1.3 1.2l-6.2 5.3 3.7 3.9 6.1-5.2 5.4-4.7-1.7-2-9.2-10.8-2.1 1.7c-5.4 4.5-11 9.5-16.9 15.2l-1.9 1.8 19.4 20.5 2.3-1.6zM321.9 212.7l2.2-1.5c15.4-9.6 31.5-18.1 48-25.3l2.4-1.1-11.2-25.9-2.3 1.1c-6.7 2.7-12.9 5.9-20.5 9.5l-2.2 1.3 7.4 14.9 13.5-6.7-2.3-4.8s-5.9 2.9-8.9 4.4c-0.8-2-1.7-3.5-2.7-5.6 5.4-2.7 10.3-5 15-7.2 1.4 3.4 5.6 12.9 7.1 16.1-15.1 6.8-29.9 14.6-43.9 23.4-2-3.2-7.6-11.8-9.5-14.9 0.8-0.4 1.5-0.9 1.5-0.9 4.4-2.6 8.7-5.3 13.2-7.7 1.1 1.9 1.9 3.4 3.1 5.4-2.7 1.5-5.3 2.9-7.7 4.3l-1 0.6 2.8 4.7 0.9-0.6c3.3-2 6.4-4 9.9-5.6l2.4-1.3-8.1-14.7-2.4 1.2c-5.4 2.8-10.7 6.1-15.8 9.3l-6 3.7 1.4 2.4 13.7 21.5zM384.8 180.7c16.8-6.6 34.3-11.9 52-15.8l2.6-0.5-6.1-27.8-2.5 0.7-2.6 0.5c-6.3 1.4-12.9 3.1-19.2 4.8l-2.5 0.9 4.6 16.1 11.3-3 3.1-0.9-1.2-5.3-3.2 0.8s-3.8 1.1-6.4 1.8c-0.6-2-1.1-3.8-1.7-5.9 5.4-1.5 10.9-2.7 16.3-4.1 0.8 3.7 3 13.7 3.7 17.2-16.1 3.6-32.1 8.6-47.6 14.4-1.3-3.3-4.9-13-6.3-16.4 4.9-1.8 9.8-3.6 14.7-5.2 0 0 0.7-0.3 1.2-0.5 0.7 2.1 1.3 3.9 1.8 5.8-3 1.1-9.3 3.2-9.3 3.2l1.7 5 14.4-4.8-5.1-16-6.5 2.2c-5.9 1.9-11.8 4-17.6 6.4l-2.3 1 10.2 26.3 2.5-0.9zM447.6 162.7l2.6-0.4c17.6-3.1 35.7-4.9 54.1-5.2h2.6l-0.7-28.3h-2.6c-7.1 0-14.3 0.6-21.3 1l-3.7 0.3 1.3 16.8 15.2-1-0.4-5.4s-6.6 0.5-9.9 0.7c-0.2-2.2-0.3-4-0.4-6.2 5.5-0.3 11-0.6 16.7-0.8 0 3.8 0.4 14.1 0.4 17.6-16.7 0.5-33.4 2.2-49.7 4.8-0.6-3.5-2.4-13.6-3-17.3 2-0.4 4.5-0.8 4.5-0.8 4-0.6 8.3-1.2 12.4-1.7 0.3 2.1 0.5 3.9 0.8 6.1-3.2 0.3-6.4 0.8-9.9 1.4l0.8 5.2c4.2-0.6 8.3-1.2 12.4-1.6l2.6-0.3-1.9-16.5-2.5 0.2c-5.3 0.4-10.4 1.2-15.4 2.1l-9.8 1.5 0.4 2.6 4.4 25.2zM572 162l2.6 0.6 4.9-28-8.2-1.3c-5.5-0.9-11.1-1.7-16.6-2.3l-2.6-0.2-1.9 16.7 2.7 0.3c3.8 0.4 8.1 0.8 12.2 1.6l0.8-5.4c-3.2-0.5-6.6-1-9.8-1.4 0.2-2.2 0.4-3.9 0.7-5.9 4.6 0.4 9.4 1.1 13.8 1.8 0 0 1.4 0.2 2.9 0.5-0.6 3.6-2.4 13.7-3.1 17.4-15.7-2.8-32.4-4.3-49.5-4.7 0.1-3.6 0.1-14 0.2-17.6 5.1 0.1 10.5 0.3 17.1 0.8-0.3 2.2-0.3 3.8-0.6 6-3.3-0.2-9.9-0.7-9.9-0.7l-0.3 5.4 15 0.9 1.4-16.8-2.7-0.1c-9.1-0.7-16-1-22.7-1h-2.7v2.7l-0.5 25.6 2.6 0.1c19.1 0.3 37.2 2 54.2 5zM637.4 180.1l2.6 0.9 10.1-26.3-2.4-1c-5.1-2.1-10.4-3.8-15.5-5.5l-8.2-2.8-1 2.6-4.3 13.4 14.5 4.8 1.7-5.1s-6.3-2.1-9.3-3.2c0.7-2 1.2-3.7 1.9-5.8 1.4 0.5 3.1 1.1 3.1 1.1 4.2 1.5 8.5 3 12.6 4.6-1.2 3.3-5 13-6.3 16.4-15.5-5.9-31.5-10.6-47.7-14.3 0.7-3.5 2.9-13.5 3.7-17.2 5.6 1.3 11.2 2.7 16.6 4.1-0.7 2.1-1.1 3.8-1.7 5.9-2.4-0.7-5.4-1.4-5.4-1.4l-4.2-1-1.4 5.2 4.3 1.2 10.3 2.6 0.9-2.5 3.8-13.7-2.6-0.7c-6.9-1.9-14.5-3.7-22.2-5.4l-2.5-0.5-0.6 2.6-5.4 25 2.6 0.5c17.8 3.7 35.3 9.1 52 15.5zM650.2 185.3c16.6 7.2 32.8 15.6 48.2 25.3l2.2 1.4 15.3-24-7.9-4.7c-4.4-2.8-9.2-5.6-13.9-8l-2.2-1.2-8.1 14.7 2.2 1.3c4 2.1 7.7 4.2 10.8 6l2.8-4.5c-2.6-1.5-5.4-3.2-8.5-4.8 1-2 1.9-3.5 2.9-5.4 3.8 2 7.6 4.3 11.2 6.5 0 0 1.7 0.9 3.2 1.9-1.9 3.1-7.4 11.9-9.4 14.9-14-8.7-28.8-16.5-44-23.1 1.4-3.4 5.6-12.8 7-16.1 4.5 1.9 9.6 4.1 15.4 7.2-1.1 2-1.8 3.5-2.7 5.4-3-1.5-9-4.4-9-4.4l-2.4 4.9 13.8 6.5 7.6-15-2.4-1.3c-8.1-4-14.5-7-20.6-9.5l-2.5-1.1-1 2.5-10.1 23.5 2.1 1.1zM709.6 218c15 10.2 29.2 21.8 42.3 34.2l2 1.8 19.4-20.6-1.9-1.8c-5.4-5.1-11-10.1-16.8-15l-2-1.7-10.9 12.9 5.5 4.5 6 5.3 3.7-3.9-6.3-5.3s-0.6-0.7-1.3-1.1c1.3-1.7 2.3-3 3.9-4.6 4.3 3.6 8.5 7.3 12.5 11-2.5 2.7-9.5 10.2-12 12.8-12.1-11.3-25.2-21.9-38.8-31.3 2-2.9 7.9-11.5 10.1-14.6 1.4 1.2 3 2.2 3 2.2 3.5 2.6 7.2 5.2 10.7 7.9-1.3 1.8-2.4 3.2-3.7 4.9-2.7-2.1-5.4-4.3-8.1-6.1l-3.1 4.5c3.3 2.3 6.7 4.8 10 7.4l2 1.7 10.3-13.3-2-1.6c-4.3-3.5-8.8-6.6-13.2-9.7l-7.3-5.4-1.6 2.2-14.5 21.2 2.1 1.5zM761.7 261.7c11.8 11.8 22.4 24.9 32.2 38.3-0.7 0.5-1.4 1.3-2.1 1.9-0.2 0.2-0.5-0.2-0.7-0.4-0.6 0.4-1 0.8-1.7 0.3v0.4c-0.3 0.3-0.4-0.5-0.8-0.4-0.5 0.5-1.4 0.5-2.3 0.6-1.4 0.1-3 0.1-4.4 0.4-0.6 0.1-1-0.5-1.7-0.3-1.8 0-3.4 0.2-5.2 0-0.2 0.1-0.8 0.2-0.9 0.3-1.8 0-3.9 0.2-5.1-1.1-1.8-1.3-3.5-2-4.7-4-0.2-0.2-0.4 0.1-0.6 0.3 0.2 1.3 0.4 2.7 0.5 4-0.8 0.1-1.8-0.4-2.5-0.6-0.2 0.4-0.2 1.3 0.2 1.4 0.3 0.4 0.5 0.5 1 0.9 0.4 0.3 0.9 0.1 1.3 0.2 0.6 0.4 1.4 0.7 1.9 1.3 1.6 1.5 3.8 2.4 4.5 4.7 0.3 0.4-1 1-1.6 1-1.9-0.1-3.5-1-5.6-1.2-1.5-0.4-2.6-1.4-3.3-2.9-1.6 2.3-4.2 1-6.5 0.5 1.4-1.6 2.6-3.2 3.5-4.7 0.3-0.5 0.3-1.4 0.5-1.6 0.7-1.3 0.9-2.6 1.4-3.6 1.6-3 1.9-6.4 2.3-9.7 0.1-0.4-0.2-1.1-0.7-1.3-0.9 1.3-1.2 2.7-1.8 4.5-0.2 0.1-0.8 0.6-1 0.7-1.2 3.1-2.3 6.4-4.9 8.7 0.2 0.1 0.2 0.4 0 0.6-0.2 0.3-0.6 0.6-1 0.6-0.7 1.5-1.5 2.4-2.9 3.5-0.2 0.1-0.9 0.4-0.6 1.1-0.2 0.1-0.4-0.1-0.4-0.3-0.2 0.2-0.5 0.3-0.6 0.5-0.9 0-2-0.3-1.7-1.2 0.6-3.2 3.2-6.8 1.7-10-1.9 1.8-3.9 3.7-5.5 6.1-1 1.1-2 2.1-2.4 3.4-0.5 1.5-0.9 3-1 4.4 0.1 0.2 0.5 0.6 0.6 0.8 2.2-0.8 4.2-1.3 6.7-1.4 1.4 0.1 3.1 0.3 4.6 0.8 2.1 0.7 4.4 0.2 6.1 1.6 0.9 0.7 1.9-0.2 2.5 1 0.1 0.1-0.2 0.5-0.4 0.5-4 0.4-7.6 0.3-11.4 0.5 0.5 1.4 1.9 1.6 3.3 2 0.1 0.2 0.5 0.6 0.6 0.8 2.7 0.1 5.4-0.6 7.9 0.7 0.3 0.2 0 0.3-0.2 0.5 0.6 0.8 0.8 1.8 0.6 2.9 0 0.3 0.8-0.2 0.9 0.2 0.6-0.5 0.6-1.1 1.1-1.7 0.7-0.8 0.8-2.5 1.9-2.4 1.8 0.1 3.7-0.1 5.3-0.2 0.8-0.2 1.6-0.2 2.8-0.5 0.5-0.1 0.7 0.9 1.1 1.1 1-0.2 1.6 0.6 2.1 0.8 1.9 1 3.9 1.9 5.8 2.4 1.2 0.8 2 1.4 3.2 1.6 1.5 0.4 2.5 1.1 3.7 1.8 0.3 0.2 1.1 0.6 1.2 1.1 0.2 0.2-0.1 0.8-0.1 0.8-0.7 0.1-1.1 0.8-1.8 0.1 0 0-0.4 0.4-0.7 0.5-0.2 0.1-0.3-0.1-0.4-0.3-0.4 0-0.4 0.4-0.3 0.5-1.2 0.1-2.4 0.1-3.3 0.1-6.9 0.7-13.4 1.9-20.1 0.7-0.5 0.1-1.1-1.1-1.8-1.4 1-1.1 3-0.4 4.2-0.3 1 0.1 2.5 0 3.3-0.2 0.9-0.4 1.9-0.3 2.6-0.8 0.2-0.2 0.7-0.2 0.9 0.1 0.1 0 0.3-0.1 0.6-0.4 0.3-0.3-0.5-0.6-0.1-0.9 0.6-0.5 0.9-0.7 0.9-1.5 0.2-0.1 0.5-0.6 0.5-0.6-0.2-0.6 0.2-1.3 0.1-1.9-0.3-0.7-1-1.6-1.5-1.3-1.5 0.4-2.5 1.3-3.9 2-2.3 1-4.5 1.2-7.1 2 0 0.2-0.9 0.4-1.3-0.2-0.4 0.4-0.9 0.7-1.2 0-0.8 1.3-2.2-0.5-3.5 0-0.1 0.1-0.4 0.2-0.2 0.4 1.4 1.4 3.4 2 4.8 3.1 0.6 0.8-1.2 1.2-1.7 2.1-0.2-0.3-0.6 0.5-0.9 0.1-0.7-0.5-1.6-1.1-2.7-1.5-0.3 0-0.5-0.9-0.8-1.1-1 0.3-1.8-0.7-2.2-0.9-1.5-0.7-3.2-1.4-4.6-2.4-0.2-0.5-1-0.6-1.9-0.6-0.2-0.3-0.5-0.5-0.6-0.8-0.7 0-1.3-0.2-2-0.4-0.9-0.5-1.8-1-2.7-1.2l-0.6-0.6c-1 0.3-1-0.8-1.9-0.8-0.4 0-0.9-0.6-1.1-1-1.7-0.6-3-1.4-4.7-2-0.3-0.1-0.3 0.3-0.1 0.5 0.1 0.2 0.4 0.6 0.5 0.9 0 0.1 0 0.2-0.2 0.4 1.3 1.6 3.1 2.8 4.7 4.3 4.7 3.8 9.7 6.5 15.1 9.3 0.2 0.1 0.8 0.6 1.2 1l0.3-0.3c0.8 0.3 1.4 0.8 2.3 1-0.1 0.4 0.2 1-0.4 1.1-5.7-0.5-10.5-1.8-16.4-1.6-0.4 0.3-1 0.8-1.2 0-0.6 0.5-1.4 0.4-1.5 0.5-1.5 0.7-3.9 2.2-4.6 0v0.4c-4.9-3.1-9.7-5.8-14.8-8.4-3-1.5-5.9-2.8-9.4-3.5-0.1-0.1-0.5-0.6-0.7-0.8-0.4 0.7-1-0.2-1.1 0-0.8 0.7-1.9 1-1.8 1.8 0 3.6 3.7 5.2 7.1 6.2 1.1 0.4 2.2 0.7 3 1.3 1.7 1.2 3.7 1.2 5 2.9 0.3 0.4 0.6-0.5 0.9-0.1 0.6 0.7 1.9 0.7 2.3 1.9 0.3 0.3 0.6-0.5 0.9-0.1 0.4 0.4 0.5 0.9 0.9 1.2 1.8 0.8 3.5 1.7 5.3 2.4 1 0.4-0.4 1.5-0.7 2-4.6 4.8-9.2 9.2-14.7 12.6-3.7-0.1-6-3.5-8.1-6.4-0.1-0.2 0-0.4 0.1-0.5-2-1.8-2-4.8-3.9-7.1-0.3 0.2-0.4 0.9-0.3 1.5 0.8 3.7 1.8 7.4 3.1 11 0.3 0.7 1.1 1.3 1.1 1.9 0 0.8 0.6 1.2 0.9 1.6 0.9 1.2 1.4 2.6 2.5 3.2 1.1 0.5 2.2 0.4 3 0 2.6-1.6 4.8-3.9 7.1-5.7 0.8-0.6 1.6-1 2.3-1.8 0.2-0.2-0.2-0.6 0.1-0.6 0.7-0.6 1.9-1.1 2.2-1.9 0.6-0.5 1.6-1.2 2.2-1.9 0-0.2-0.3-0.4 0-0.5 0.6-0.7 1.7-0.9 2.1-1.6 1.2-1.8 2-3.5 3.7-4.4 0.9-0.4 2.1 0.9 3.3 1.2 0.1 0.3 0.4 0.5 0.6 0.8 1.4-0.2 1.5 1.2 2.6 1.2 0.6 0.3 0.7 0.9 1.2 1.4 0.1 0.2 0.5-0.1 0.6 0 0.6 0.6 1.8 1.9 0.8 2.3-3.1 1.1-6.4-1.2-10-1.3 0.2 0.1 0.2 0.1 0.3 0.4 0.1 0.1-0.1 0.4-0.2 0.5 1.7 1.7 4.1 2 6 3.7 0.4-0.3 0.5-0.1 0.9-0.1 1.6 1.2 3.6 0.8 5.6 1.6 0.4 0 0.9 0.2 0.9 0.6 0.5-0.6 1 0.3 1.5 0.2 1.5-0.8 0.7-2.7 0.9-4.1 0-1.2-1.1-1.8-1.8-2.6-2.4-4.1-6.9-6.7-9.8-10.5 0.7-0.6 1.9-0.7 2.7-0.3 2.1 1.3 4.5 1.7 6.9 2.4 0.1 0.1 0.3 0.6 0.5 0.8 0.3 0.3 0.6-0.5 0.9 0l0.5 0.5c2 0.4 3.6 1.5 5.8 1.4 0.6-0.2 1.1 0.9 1.6 1.1 0.3-0.2 0.6-0.2 0.6-0.5 0.7 0 1.2 0.2 1.7 0.4 0.5-0.9 1.1 0 1.9-0.2 0.1-0.2 0.9-0.4 1.1 0.3 1.1-0.5 2.1-0.4 3.3-0.1 0.3-0.1 0.4-0.3 0.6-0.4 1.4 0.2 3.1 0.1 3.7-1.3 0.6-1.2 0-3-0.8-4.5-0.3-0.4-0.5-1.9 0.7-1.5 1.6 0.6 3.5 0.5 5.2 0.3 0.3 0.1 1 0.4 1.5 0.1 0.3-0.2 0.5 0.2 0.7 0.3 3.2-0.5 6.2 0 9.2-0.6 0.9 0.1 1.4 0.2 2 0.5 0-0.4 0.9-0.1 0.7-0.7 1.4 0.2 2.7-0.2 4-0.2 1 0.2 2 0.3 3.1 0.6 0.6 0.2 1.3-0.3 2-0.6 1.3-0.2 1.4-2.1 1.3-2.9-0.2-1-0.4-2.3-1.3-2.9-1-0.7-1.4-1.9-2.7-2.2-0.9-0.2-1.3-1.1-2-2-0.3-0.3-0.5 0.6-0.8 0.1-0.5-0.6-1.1-1-1.7-1.6-3.4-1.9-7.2-3.7-10.9-5.4 0-0.3-0.1-0.3-0.2-0.7 0.7-2.6-0.6-4.7-2.2-6.7 0.1-0.3 0.2-0.9 0.7-1.1 3.4 0 6.2 0.5 9.4 0.7 0.3 0.3 0.6 0.4 0.9 0.7 4-0.3 7.9 1.6 10.7-1.8 0.3-0.1 0-0.5 0.1-0.7 0.4-0.4 0.4-0.8 0.6-1.2 0 0.1 0.3 0.3 0.3 0.4l1.7 2.1 23-16.4-1.6-2.2c-3-4.4-6.3-8.7-9.6-12.9l-5.5-7.1-2.2 1.7-11 8.9 9.3 11.9 4.3-3.2s-4-5.2-6.1-7.9c1.8-1.4 3-2.4 4.8-3.7 1.1 1.3 2.2 2.8 2.2 2.8 2.8 3.3 5.4 6.8 7.9 10.3-2.9 2.2-11.4 8.2-14.3 10.3-9.7-13.4-20.4-26.2-31.9-38.1 2.4-2.5 9.9-9.8 12.5-12.4 3.2 3.2 6.3 6.7 9.4 10.2 0 0 1.1 1.1 2.1 2.4-1.6 1.4-3 2.6-4.6 4.1-1.7-1.9-3.6-4.1-3.6-4.1l-3-3.4-4 3.5 3 3.5 7.2 7.7 1.9-1.6 10.8-9.4-5.8-6.4c-3.7-4-7.5-8.2-11.4-12.2L780 240l-1.9 1.8-18.3 18 1.9 1.9z" fill="#CF111B" p-id="4264"></path><path d="M804.4 314.5c9.9 15.1 18.8 31.2 26.3 47.5l1.2 2.5 25.8-11.7-4.1-8.6c-2.3-4.5-4.5-9.4-7-13.9l-1.4-2.3-14.9 7.9 1.4 2.4c2 3.6 3.9 7.4 5.7 11.1l4.8-2.4c-1.2-2.9-2.8-5.9-4.5-8.8 2-1.1 3.6-1.9 5.5-2.9 2.1 3.7 3.9 7.6 5.6 11.4 0 0 0.9 1.8 1.8 3.5-3.5 1.6-12.9 5.8-16.1 7.3-6.9-15.1-15-29.6-24.1-43.6 2.9-1.9 11.7-7.5 14.7-9.6 3 4.7 6.1 9.5 9 14.5-2 1-3.4 1.9-5.4 3.1-0.3-0.9-0.9-1.6-0.9-1.6l-4.1-7.1-4.7 2.8 4.2 6.9 3.4 6.1 2.5-1.3 12.2-7-1.3-2.3c-3.7-6.7-7.9-13.2-11.9-19.3l-1.4-2.2-2.3 1.5-21.4 14.2 1.4 1.9zM836 374.6c6.9 16.7 12.4 34.1 16.5 51.7l0.6 2.7 27.5-6.5-0.5-2.7c-1.5-7-3.5-13.9-5.5-20.8l-1-3.4-16.2 4.7 4.3 14.5 5-1.4s-1.7-6.2-2.5-9.5c2-0.5 3.7-1.1 5.8-1.6 1.4 5.3 3 10.8 4.3 16.1-3.6 0.7-13.7 3.2-17.2 4-4-16.1-9-32-15.2-47.4 3.4-1.5 12.8-5.3 16.3-6.7 0.5 1.3 1 2.5 1 2.5 1.8 4.4 3.4 9 5 13.4-2.2 0.8-3.7 1.4-5.9 2.1-1.1-3-2.1-6.1-3.1-9l-0.3-0.4-4.9 2 0.1 0.3c1.4 3.6 2.8 7.6 4.1 11.3l0.7 2.6 16-5.4-0.8-2.5c-1.7-5.5-4-11-5.9-16.3l-3-7.4-2.6 1L835 372l1 2.6zM313.3 813.8l6.9 4.4 2.1-3.5-6.5-4.2c1.7-6.3-2.4-20.4-11.7-30-9.9-10.8-12.7-20.3-9.9-28.7 0 0-10.2 11.5-9.5 21.7 0.7 8.6-9.9 0-14.4 5-4.7 5.4 6.9 13.6-2.8 15.5-11.1 2-20.9 11.5-20.9 11.5 12.4-1.7 19-1.2 33.1 7.4 12.3 7.2 27.8 4.7 33.6 0.9zM265.8 771.8c2.6-5.8 1.2-20.4-6.2-31.7-8.1-12.3-9.1-22.1-5-29.8 0 0.1-11.9 9.5-13.1 19.8-0.7 8.4-9.5-1.5-15 2.4l1.5-1.3-4.6-6c3.4-5.3 4.6-20-0.8-32.3-5.8-13.5-5.1-23.3 0.4-30.2 0 0-13.5 7.4-16.4 17.2-2.2 8.1-9.1-3.2-15.2-0.3l1.8-1c-1.3-2.2-2.4-4.5-3.6-6.8 4.6-4.5 8-18.9 5.1-32-3.3-14.2-1.2-23.7 5.5-29.6 0 0-14.7 4.8-19.1 14.1-3.6 7.5-8.4-4.7-14.9-3l1.8-0.6-2.2-7.4c5.2-3.6 11.2-17.1 10.5-30.6-1-14.6 3.1-23.6 10.6-28.2 0 0-15.3 2.2-21.2 10.5-5 6.9-7.6-6.5-14.3-5.4-7 0.9-3.4 14.8-12.2 9.9-9.5-5.7-23.2-4.7-23.2-4.7 10.6 6.8 15 11.5 20.5 27 4.8 13.4 18.5 21.6 25.1 22.4l2.6 7.8 1.7-0.6c-6.3 2.4-0.5 15-10 11.8-10.6-3.8-23.8-0.4-23.8-0.4 11.7 4.6 17 8.5 25 22.8 7.1 12.4 22 18 28.6 17.6 1.2 2.5 2.5 5 3.8 7.2l1.7-0.9c-5.9 3.4 2 15.1-7.7 13.4-11.1-2-23.5 3.7-23.5 3.7 12.2 2.7 18.2 5.6 28.5 18.2 9.2 11.1 24.7 14 31.2 12.4l5.1 6.5 1.4-1.1c-5 4.4 4.7 14.2-5.3 14.5-11.2 0-22.5 7.8-22.5 7.8 12.5 0.3 18.8 2.2 31.2 12.9 10.9 9.3 27 9.4 33.1 6.8 1.9 1.9 4.1 3.7 6 5.6l1.4-1.6 1.3-1.5c-1.8-1.7-3.8-3.4-5.6-5.3z" fill="#CF111B" p-id="4265"></path><path d="M148.3 551.8c0.3 2.7 0.7 5.4 1.1 8.1l4-0.5c-0.3-2.7-0.8-5.2-1.1-7.8 5.8-2.6 14.2-15 15.8-28.2 1.7-14.5 7.2-22.8 15.6-26 0 0-15.3-0.4-22.9 6.7-6.3 6-6.1-7.6-13.1-7.9-7-0.3-6 13.9-13.7 7.7-8.5-7.2-22.1-8.6-22.1-8.6 9.2 8.4 12.9 13.9 15.5 29.9 2.4 14.2 14.5 24.6 20.9 26.6z" fill="#CF111B" p-id="4266"></path><path d="M146 488l-0.2 8.1 4.1 0.2 0.2-7.7c6.3-1.7 16.5-12.4 20.4-25.2 4.1-14.1 11.2-21.1 19.7-22.9-0.1 0-15.1-3-23.5 2.7-7.1 4.8-5-8.6-11.8-10-6.6-1.6-8 12.8-14.6 5.1-7.4-8.6-20.4-12.2-20.4-12.2 8.1 9.9 10.1 15.8 10.2 32.2-0.3 14.4 10 26.6 15.9 29.7zM816.8 680.1c-4.4-10.1-16.1-17.1-16.1-17.2 5.1 10.6 6.2 16.9-0.1 30.1-5.4 11.4-3.3 26.3-0.2 32.3l-5 6.3 1.6 1.3c-5.3-4.2-13.2 7-15.2-2.5-2.5-10.7-12.9-19.7-12.8-19.8 3.1 11.3 3 17.6-5.4 29.6-7.3 10.2-7.8 25.2-5.8 31.8-2 1.9-4 3.5-6.1 5.5l1.4 1.5c-4.5-5.1-14 4.8-14.5-5.1-0.6-11-9.4-21.6-9.4-21.6 1.2 11.5 0 17.8-10.3 28.1-9 8.8-12 23.6-11.2 30.3l-6.8 4.3 2.1 3.6 6.6-4.2c5 4.2 20.4 5.7 33.9-1.5 14.3-7.8 24.7-10.1 33.3-7 0 0-10.3-11.1-20.9-11.7-8.7-0.5 2-10-2.7-15.2l1.4 1.5c1.9-1.7 3.8-3.4 5.8-5.2 5.4 3.3 21.2 2.2 33.1-7.3 12.6-10.2 22.4-14.4 31.6-12.6 0 0-12.1-9.2-22.6-8-8.8 1 0.1-10.2-5.3-14.5l1.6 1.3 4.8-6.2c6 2.3 21-1.5 31.3-12.9 10.7-12.2 19.5-18.1 28.9-17.9 0 0-13.6-6.9-23.7-3.8-8.5 2.4-1.6-10.2-7.6-13.5-6.3-3.1-11.9 9.3-15.7 0.2z" fill="#CF111B" p-id="4267"></path><path d="M884.4 569.7c-7.2 5.3-5.2-8.9-12.2-9.8-6.7-1-7.6 12.6-14.2 5.4-7.5-8-21.2-10.5-21.2-10.5 8.3 8 11.5 13.6 10.3 28.2-1.1 12.5 6.1 25.7 11.1 30.3l-2.5 7.8 1.7 0.5c-6.4-1.7-9.7 11.2-15 3-5.9-9.1-18.8-14.1-18.8-14.1 6.8 9.3 9 15.3 5.2 29.6-3.3 12.2 1.4 26.4 5.4 31.8-1.2 2.4-2.5 4.8-3.8 7.2l2 1 1.7 1c1.3-2.3 2.5-4.5 3.5-7 6.3 1.2 20.8-5.1 28.7-18 8.4-14.1 16.2-21.3 25.4-22.7 0 0-14.5-4.5-24 0.2-7.8 3.8-3.3-9.3-9.7-11.8l1.8 0.6 2.4-7.4c6.3 0.1 19.3-8.7 24.9-22.8 5.9-15.3 12.1-23.7 20.8-26.8-0.1-0.1-15.2-2.1-23.5 4.3z" fill="#CF111B" p-id="4268"></path><path d="M889.6 504.1c-6.1 6.3-6.6-8-13.6-7.7-6.8 0.2-5.3 13.8-13.3 8-8.8-6.7-22.5-6.9-22.5-6.9 9.8 6.5 13.7 11.5 15 26.1 1.2 12.5 10.4 24.3 16.1 27.9-0.2 2.6-0.6 5.4-1.1 8.1l4.1 0.6c0.4-2.6 1-5.2 1.1-7.8 6.3-1.1 17.6-11.9 20.4-27 3.4-15.8 7.9-25.4 16.1-29.9 0.1 0-15.2 0.8-22.3 8.6z" fill="#CF111B" p-id="4269"></path><path d="M869 433.2c-6.9 1.4-3.1 14.5-11.8 10.1-9.7-5-23.4-2.8-23.4-2.8 10.4 4.8 15.6 8.9 19.1 23 3.5 12.2 14.4 22.3 20.8 24.9l0.3 8 4.1-0.1-0.2-7.7c5.8-2.2 15.2-14.9 15.5-30.1 0.6-16.3 3.2-26.4 10.7-32.3 0 0-14.9 3.4-20.7 12.2-5 7.4-7.7-6.8-14.4-5.2zM592.8 847.9c-1.4 0.5-2 1-2.6 1.6-0.8-8.4 2.6-11.7 5.7-13.5l-0.4-1.1c-9.3 4-11.8 13.4-9.6 21.3 2.7 10.3 7.9 11.7 10.8 10.8 5.8-1.5 5.1-9.2 4.6-11.5-2.2-7.5-6.3-8.2-8.5-7.6z m3.7 18c-2.1 0.5-3.2-2-5.6-10.5-0.2-1.4-0.8-4-0.6-4 0.3-0.6 0.7-0.8 1.3-0.8 2.2-0.7 3.6 2.4 5.2 8.7 0.9 3.3 1.7 6-0.3 6.6zM573.5 861.9c-0.5 3.1-0.6 3.6-4.1 4.3l-5 0.8 4-7.7c2.9-5.5 2.3-8.8 2.1-10.1-1.2-6.8-5.5-7.6-7.6-7.2-4.6 0.9-5.4 7.6-5.6 10.5l1-0.3c0.5-4 2.6-4.6 3.3-4.7 3.3-0.7 4.7 3.6 5 4.9 0.9 5.2-2 11.6-6 20.2l0.3 1.1 13.8-2.5-0.2-9.7-1 0.4zM536.9 845.8c-6 0.6-6.5 8.3-6.2 10.7 0.8 7.6 4.7 8.9 7 8.7 0.7 0 1.2-0.3 1.7-0.4 0.4-0.2 0.9-0.5 1.3-0.9-0.8 8.7-4.6 11.3-7.6 12.6v1c9.8-2.3 13.8-11.4 12.9-19.5-1.1-10.4-6-12.6-9.1-12.2z m2.5 17.1c-2.3 0.3-3.3-3-3.9-9.5-0.4-3.5-0.7-6.2 1.4-6.4 2.1-0.2 2.9 2.4 3.8 11.2 0.1 1 0.1 3.2 0.1 4-0.1 0.4-0.9 0.7-1.4 0.7zM514.7 871.3l-0.8-25.5h-0.6l-8.2 5.1v1.3c1-0.6 2.2-1.3 2.7-1.3 1.3-0.1 1.3 2 1.3 3.1l0.6 17.2c0 2.7 0 4.5-3.8 4.5v1.1l12.6-0.3v-1.1c-3.5 0.2-3.8-1.1-3.8-4.1zM488.2 864.7l8.2 0.3 0.2-5.2-8.1-0.3zM607.1 847.9l1.9 5 7.6-2.9-1.8-4.8zM463.4 861.3c-1.3 10.6 3.2 13.6 6.1 14 6 0.6 8.1-6.8 8.3-9.2 0.9-7.7-2.8-9.7-5-10.1-1.6-0.1-2.3 0.1-3.2 0.5 2.4-8.1 6.8-9.9 10.2-10.5l0.1-1.2c-10 0.4-15.7 8.4-16.5 16.5z m5.9-2.9c0.4-0.6 1-0.6 1.6-0.4 2.2 0.2 2.4 3.6 1.7 10-0.5 3.5-0.6 6.3-2.7 6-2.1-0.1-2.2-3-1.3-11.7 0.1-1.5 0.6-3.9 0.7-3.9zM437.2 849.1l0.9 0.2c1.3-3.6 3-3.3 3.9-3.1l6.8 1.3-11 22.5 3 0.5 13.3-28.2-13.7-2.6-3.2 9.4zM421.1 834.5c-5.9-1.7-9.2 5.4-9.7 7.8-2.1 7.3 1.1 10 3.4 10.6 0.5 0.2 1 0.2 1.5 0.2s1.1-0.1 1.6-0.3c-3.9 7.8-8.2 8.9-11.7 8.9l-0.2 1.1c10.1 1.3 16.8-5.8 19-13.6 2.9-10.3-1.1-14-3.9-14.7z m-0.9 13c-0.4 1-1.2 3.2-1.4 3.8-0.2 0.3-1 0.3-1.6 0.2-2.3-0.7-1.9-4-0.3-10.4 1-3.3 1.7-6 3.8-5.6 2 0.7 1.7 3.4-0.5 12z" fill="#CF111B" p-id="4270"></path><path d="M696.7 783.9l-7 4.3c-19.8 12.9-41.2 23.2-63.3 31.4l-4-11.8-4.2 1.4c-34.2 11.6-69.9 17.5-106.5 17.5-36.5 0-72.2-5.9-106.3-17.3l-4.2-1.5-4.1 11.7c-22.3-8.2-44.1-18.7-64.3-31.8l-6.9-4.4v37.8h-64.5l10.8 7.9c38.7 29.1 81.5 50.6 127.4 63.9l4.3 1.2 4.2-12.7c33.4 9 68.2 13.8 103.4 13.8 34.9 0 69.4-4.7 102.8-13.7l4.1 12.8 4.2-1.2c46-13.3 89-34.6 127.6-63.6l10.9-8s-57.2 0.1-64.7 0.1c0.2-6.9 0.3-37.8 0.3-37.8z m-298.5 99.2c-39-11.8-75.7-29.7-109.3-53h46v-30.6c18.9 11.5 38.8 21 59.3 28.6L379 872.8l4.2 1.5c5.4 1.8 10.9 3.2 16.3 4.8-0.4 1.3-0.8 2.7-1.3 4z m113.4 3.3c-41.4 0-82.2-6.6-121.2-19.3 2.3-6.9 14-41.5 16.1-48 33.9 11 69.2 16.5 105.1 16.5 36 0 71.2-5.6 105-16.5 2.2 6.5 14 41.1 16.3 47.8-39 12.9-79.9 19.5-121.3 19.5z m222.1-55.9c-33.5 23.4-70.4 41.1-109.3 52.8-0.4-1.4-1-2.8-1.4-4.1 5.6-1.7 11.4-3.2 17-5l4.3-1.5-15.2-44.5c20.3-7.5 39.9-16.9 58.5-28.2v30.7s30.5-0.2 46.1-0.2z" fill="#CF111B" p-id="4271"></path></svg>