<?xml version="1.0" standalone="no"?><!DOCTYPE svg PUBLIC "-//W3C//DTD SVG 1.1//EN" "http://www.w3.org/Graphics/SVG/1.1/DTD/svg11.dtd"><svg t="1694159423931" class="icon" viewBox="0 0 1024 1024" version="1.1" xmlns="http://www.w3.org/2000/svg" p-id="4406" xmlns:xlink="http://www.w3.org/1999/xlink" width="200" height="200"><path d="M150 409.9c-1.2 6.4-5.1 10.9-6.4 17.4 1.9-1.3 3.8-2.6 5.8-3.2 2.5-1.9 3.8-5.2 6.4-7.7 3.2-3.9 4.5-9 6.5-13.5 2.6-5.8 1.9-12.8 0-19.3-0.7-3.2-1.3-7.8-3.9-9.7-0.6-1.3-1.3-2.6-2.6-3.2v-2.6c-3.9-3.2-7-7.1-11.6-9.6h-2.6c0.6 10.9 3.5 20.8 6.5 31.6 1.9 6.9 2.5 13.4 1.9 19.8zM240.1 545.1c0-0.7 1.3-1.3 1.9-1.3 1.3-1.3-1.9-1.3-1.3-2.6 1.9-9.7 2.6-19.3 4.5-29 1.9-11.6 0.7-22.5 5.8-33.5 0.7 0 1.3 0 1.3 0.6 0 2.6 0 5.2-0.6 7.2-2.6 10.9-7 22.5-0.7 32.8 2.6 3.8 7.1 5.8 11.6 6.5 1.3 0 3.2-2.6 2-4.5-1.4-0.6-2-2.6-2.6-3.2-1.9-3.9-6.5-7.1-5.1-11.6 1.3-4.5 3.8-9 6.4-13.5 0.7-0.7 2-1.9 3.2-2.6 1.3-1.3 0.7-3.9 1.3-5.2 1.3-2.5 1.7-5.6 0-9-0.6-1.3-0.6-2.6-0.6-3.9 0-1.3-1.9 0-1.9-1.3 0.6-1.9-2-2.6-2.6-4.5-1.3-3.2-4.5-4.5-7.8-7.1-2.5-1.9-6.4-2.6-9-4.5-2.6-1.3-5.8-1.3-8.4 0 4.5 5.2 11.6 9 13.5 16.1 0 0.7-0.6 0.7-1.2 0.7-0.7 0-0.7-0.7-0.7-1.3-1.3 0-3.2-0.6-4.5 0-2.6 2-7.2 1.3-8.4 3.9-2.6 3.2-1.3 9-3.2 12.9-3.9 8.4-8.3 17.4-14.7 24.5-2.6-6.4 3.8-14.8-3.3-19.3-1.9-1.3-5.1-1.3-7.7 0-5.8 2.6-9.1 9-14.2 13.5-3.8 3.9-7 8.4-9.6 13.6-1.3 1.9-4.5 5.1-7.1 6.5-1.3 0.6-3.2 1.2-3.9 3.2-0.6 3.9 0 7.7 1.9 10.9 2.6 3.9 6.4 5.1 9 2.6 1.3-0.7 1.9-2.6 3.2-4.5 0.6-1.3 0-3.8 2.5-4.5-0.6-3.2 2-5.2 2-8.4 0-0.6 1.3-1.2 1.3-1.2 3.2-6.5 5.8-12.9 8.4-19.4 0.6-1.3 2.6-2.6 3.8-3.2 3.3 12.9-4.5 25.1-10.3 36.7-1.3 3.2-0.6 6.4 0.6 9.7 1.3 1.9 3.2 2.6 4.5 4.5 0.7 1.3 2.6 0 3.9 1.9 1.2 1.3 3.9 0.6 4.5 0 1.9-2.6 1.9-6.4 3.8-9 0.6-1.3 0-2.6 0-3.9 0.6-0.6 0.6-1.3 1.9-1.3 0-1.3 0-3.2 1.9-3.9v-1.9c0-0.6 1.3-0.6 2-0.6 0.7-0.6-0.7-2.6 0-3.2 7.7-7.7 9.7-18 15.4-27.1-1.3 23.2-4.4 45.1-8.9 68.3-1.3 8.4-2.6 16.1-6.5 23.8-2 3.9-8.4 1.9-11.6-2-1.4-0.6-3.2 0.7-2.6 2.6 0.6 1.3 2.6 2.6 1.9 4.5 2.6 0 1.9 2.6 2.6 3.9 1.9 2.6 3.2 5.8 5.1 8.4 1.3 2.5 3.8 5.8 7.1 3.2 12.8-9.7 16.1-26.4 19.3-41.9 2.2-9.8 1.6-19.4 0.9-29.1z" fill="#CF111B" p-id="4407"></path><path d="M247.9 438.3c-3.9 3.2-9 4.5-12.2 8.3 19.3 2 36-9.7 48.9-22.5-0.6 18.7-5.8 37.4-6.4 56-1.3 29 1.3 57.3-1.9 86.3 0 1.3-2.6 0.6-4.5 0.6-5.2-1.3-9.7-3.9-14.1-6.4-4.5-2.6-7.7-6.4-12.8-7.7v1.9h1.2c1.3 0.6 0 1.9 0.6 3.2h1.3c1.3 1.3 1.3 3.2 1.9 3.2 5.1 3.2 8.3 7.1 13.5 10.3 4.5 2.6 8.4 6.4 11 10.3 3.9 7.1 10.3 10.9 17.4 12.2 2 0 2-2.6 3.2-3.2 1.3-1.9 0.7-4.4 0.7-7.1-0.7-3.9-1.9-8.4-1.9-12.2 0-0.6 0.6-0.6 1.2-0.6v-38c-0.6 0-1.2 0-1.2-0.7 0-17.4-0.7-34.1 0-51.5 1.2-19.3 8.1-37.2 13.5-56 1.3-4.5 1.9-9 0.6-13.5-2.5-7.1-12.1-8.4-18-5.2-10.9 5.8-19.9 12.3-29.6 20.6-4 3.3-8.6 7.8-12.4 11.7zM907.8 386.1c-2.6-1.3-5.8-2.6-8.4-2-3.2 1.3-6.4 0-9 2.6-2 1.3-4.6 0.7-7.1 0.7-1.3 0 0 2-1.3 2-1.9 0-3.9 0.7-5.8 1.3-9.7 3.8-19.3 9-29 14.2-0.7-0.6-1.3-0.6-1.9-0.6-3.9-5.9-10.9-6.5-17.4-6.5-0.6-0.6-1.9-1.9-1.3-3.2 5.1-7.1 11-12.2 16.8-18.7 0.7 0 1.9-0.6 2.6-0.6 5.8-9 16.1-14.2 13.5-25.7 0-0.7-1.3-0.7-1.3-1.3 0-4.5-3.2-7.7-5.8-11-1.3-2.5-3.9-3.2-7.1-2.5 2.5 5.8 1.9 12.2 1.9 18.7 0 0.6-1.3 0.6-1.9 0.6 0 2 0 3.2-1.9 3.9l0.7 0.6c0 1.3-1.9 0-1.9 1.3 0 1.9-1.3 3.9-2.6 5.8-1.9 3.2-4.5 6.5-6.4 10.3-0.7 1.3-2.6 1.3-3.3 2.6-2.6 3.9-5.1 7.8-8.4 11 0 0.7-0.6 1.9-0.6 2.6-2.6 3.9-5.8 8.4-10.3 9-5.8 1.3-10.3 3.9-16.1 3.2-0.7 0-0.7 1.3-0.7 1.9 3.2 1.3 6.4 3.2 9.7 5.2-1.3 1.9-3.9 3.2-5.9 4.5 0.7 1.3 2.6 2.6 3.9 1.9 0.6 0 1.9-0.7 3.2-0.7 1.3-0.7 1.9-2 2.5-2.6 2-0.7 3.9-1.9 5.8-1.9 5.8-0.7 11.6-3.9 17.4-1.9 1.3 0 0.7 3.9-0.6 5.2-3.2 3.8-7.7 5.8-11.6 9.6-3.2 2.6-7.1 3.2-11.6 2.6 2.6 7.1-4.5 10.3-9.1 14.2-1.2-5.2-2.5-10.3-4.5-14.8-0.6-1.3-2.6-2.6-2.6-3.2-1.3-3.8-3.9-6.4-5.2-9-3.8-8.4-10.3-14.1-16.7-20.6-0.7-0.6-2.6-1.3-3.9-0.6 1.3 3.9 3.9 7.1 6.4 11v3.2c4.5 7.7 9.6 15.4 10.3 24.4 0.6 0 1.3 0 1.3 0.7v3.2c1.9 3.9 2.6 7.1 2.6 11.6 0 0.7-0.7 2.6 1.3 3.2 0 0.7-0.6 0.7-1.3 0.7v1.9c-1.3 2-3.8 3.9-5.1 2-5.8-6.5-9-18-18-20 0.7 7.1 1.3 14.1 3.9 21.2 0.7 3.9 1.3 7.7 3.2 11 2.6 3.2 5.2 6.4 7.7 9h2.6c1.9-5.8 3.8-10.9 7.7-16.1 2.6-3.2 5.7-6.5 9-8.4 5.2-3.3 7.9-8.9 13.5-10.3 2.6-0.6 2.6-4.5 5.8-3.8 0.7 0 0.7 1.3 0.7 1.9-5.8 9-11.6 16.1-17.4 24.5 3.9 1.3 6.5-1.3 9.7-3.8h2.5c4.5-5.1 7.1-12.2 14.2-15.5 0.6 0 0.6 0.7 0.6 1.3 2.6 0 5.2 1.3 7.1 3.2 0.6 0.7 0.6-1.9 1.9-1.2 0-2-1.3-3.2-1.9-5.2-0.7-2.6-3.9-5.8-2-7.7 3.2-3.9 5.8-7.7 7.7-11.6 1.3-1.9 2.6-3.8 3.9-6.4 0.7-1.3 3.2 0 3.9-0.7 1.3-2.6 3.9-2.6 5.2-3.2 5.2-2.6 10.3-5.2 14.8-8.4 3.3-1.3 5.8-1.9 8.4-3.9 3.2-2.6 6.5-3.9 9.7-5.1 1.3 0 3.3-1.3 4.5-0.7 0.6 0 1.3 1.3 1.3 1.3-0.7 1.9 0 3.9-2.6 4.5v2c0 0.7-0.7 0.7-1.3 0.7-0.7 0.6 0 1.3 0.6 1.3-1.9 2.6-3.8 5.1-5.1 7.1-9.7 15.5-17.4 30.9-31 43.2-0.6 1.2-3.8 0.6-5.8 1.9-0.7-3.9 3.8-7.1 6.4-9.7 1.9-1.9 3.8-5.1 4.5-7.1 0.7-2.6 2.6-4.5 2.6-7.1 0-0.6 0.6-1.3 1.9-1.3v-1.9c0-1.3-1.9 0-1.9-1.3 0-2 0-3.3-1.9-4.5v-1.9c-2-0.7-2.6-2.6-3.9-3.2-1.9-0.7-5.2-0.7-5.2 0.7-1.3 3.8-1.3 7.7-1.9 11.6-1.9 6.5-4.5 11.6-7.1 18 0 0.7-0.6 2.6-2.6 2.6 0 1.2 0 3.2-1.9 2.5 1.3 3.9-4.5 3.9-5.8 7.1 0 0.7 0 1.3 0.6 1.3 5.2-0.7 9.7-3.9 14.2-5.2 2.6 0 0.7 4.5 1.9 7.1-1.3 0 0 1.9-1.3 1.9-2.6 0.6-5.2 1.3-7.8 3.2-0.6 0.7-2.5-0.6-3.2 0-1.3 2.6-4.5 2.6-5.8 3.2-3.9 1.9-7.7 4.5-12.2 5.7-1.3 0-3.2 1.3-4.5 3.3h-2.6c-1.3 1.3-2.5 2.5-3.8 3.2-2.6 1.3-5.2 1.9-7.1 3.9h-2.6c-0.7 2.6-3.2 1.3-4.5 3.2-0.7 0.6-2.6 0.6-3.9 0.6-3.9 2.6-7.7 3.9-11.6 6.5-0.7 0.7 0 1.3 0.6 1.3h2.6c0.6 0 0.6 0.7 0.6 1.3 5.8 0 10.9-1.9 16.8-3.2 15.5-3.8 29-9.6 43.8-16.1 0.7-0.6 2.6-1.3 3.9-1.3v-1.3c1.9-1.3 3.9-1.3 5.8-3.2 0.6 0.7 2.6 1.3 1.9 2.6-10.3 11-20.6 19.3-29.6 32.2 0 1.3 0 3.2-1.9 2.5 0 2-1.3 3.3-1.3 3.9-1.3 4.5-2 11.6-7.8 9.7l0.6 0.6c-14.2 5.2-27.7 10.9-41.2 17.4-7.7 3.8-15.4 7.7-22.5 14.1h-2.6c0.6 1.9-2.6 1.9-2 2.6 0 2.6-1.3 5.8 0.6 6.4 7.8 5.8 16.8 0.7 24.5-4.5 2.6-1.9 5.1-3.8 7.7-4.5 5.1-1.3 8.4-5.8 14.1-5.8 1.3 0 0-1.9 1.3-1.9 2.6 0 4.5-2.6 7.8-1.9 1.3 0 0-1.9 1.3-1.9s2.6 0.6 3.9 0c4.5-2.5 9-4.5 13.5-7.1 2.6-1.3 2.6 3.2 3.2 4.5 2.6 17.4 4.5 34.1 3.2 50.8-6.4 7.7-17.3 7.1-27 7.1-0.6 0-0.6-0.6-0.6-1.3-7.1 1.3-13.6-3.2-21.3-3.2 0 1.3 1.2 2.6 2.6 3.2 9 4.5 18.7 8.4 28.3 11.6 1.9 0.6 4.5-0.6 5.8 0.6 1.3 1.3 3.2 0.7 4.5 0.7 3.9 0 7.7 1.3 10.9 0 2.6-1.3 3.9-3.8 4.5-6.4 0.6-7.7-0.7-16.1-0.7-23.8 0-2.6 0.7-5.2 0-7.8 0-0.7-1.3-0.7-1.3-1.3 0-2.6 0.7-5.8 0-7.7-0.6-2 0-5.1-0.6-7.7-0.7 0-1.4 0-1.4-0.6 0-2.6 0.6-5.2 0-7.1-1.9-5.1-3.9-9.6-3.2-14.8 0.6-2.6 5.1-3.3 7.7-5.2h2.6c1.9-3.2 5.1-1.3 7.1-3.9 1.3-0.6 3.2 0 4.5 0 0.7 0 0.7-1.3 1.3-1.3 1.9 0 6.4-0.7 5.8 1.9-2.6 8.4-12.9 11.6-18.7 18.7h1.3c0.6 0 0.6 0.6 0.6 1.3 6.5-0.7 11-5.2 17.4-6.4 0-1.3 0.6-1.3 1.3-1.9 5.1-1.3 7.7-6.5 12.2-9.7 0.6-0.7 1.9-1.3 3.2-0.7-0.6-1.9 1.9-1.3 2.6-2.6 0.6-4.5-4.5-5.8-7.1-8.4-2.6-1.9-5.8-0.7-8.3-0.7-12.9-1.3-25.2 3.9-38 3.9 0-2.6 1.9-5.2 3.8-6.5 5.8-2.6 11-6.4 16.1-10.4h2.6c1.3 0 0-1.9 1.3-1.9h1.9c3.8-3.9 9-5.1 12.3-10.3 0.6-1.3 3.8-0.7 5.1-1.9 0-0.7 0-1.3-0.6-1.9 1.3-1.3 2.6-2 3.8-2.6-1.3-2.6 1.9-2.6 2.6-4.5 0-0.7 0.7-2.6 2.6-2 0.7-3.2 2.6-5.1 5.2-7.1v-1.9c2.6-2.6 5.2-6.4 3.2-9.7-2-3.2-6.4-5.2-11-5.8-1.3 0-4.5-1.9-1.9-3.9 3.9-2.6 6.5-6.4 9-10.3 0.7-0.6 2.6-1.3 2.6-3.2 0-0.6 1.3-0.6 2-0.6 3.8-7.8 9.6-12.9 13.5-20.7 1.3-1.2 2.6-2.5 3.8-3.2-0.6-0.7 1.3-1.9 0-2.6 2.6-2.6 3.9-5.8 5.8-8.4 1.9-2 3.9-3.9 6.5-5.8 1.3-1.3 1.3-3.2 1.9-5.2 2-3.3-1.2-6.5-3.2-7.8zM685.7 557.4c1.3-0.7 3.2-1.3 3.9-2.6 0.6-1.9 0.6-4.5-0.6-6.4-2.5-1.9-5.8 0.6-9 0-12.2-2.6-22.5-7.7-32.8-15.5-0.7 0-2.6-0.7-3.2-0.7-12.9-9.6-23.8-20-37.3-28.3-1.3-1.3-3.9-3.8-2-5.8 2-2.6 5.8-3.9 9.7-5.8 4.5-3.2 8.3-5.8 12.2-9 7.1-5.8 14.8-10.3 20.6-18 0.6-0.7 2.6-1.3 2.6-1.9 1.3-2.6 1.9-6.5 0-8.4-2.6-3.2-5.2-6.4-8.4-9-3.2-3.2-2.6-9.7-7.7-10.9-0.7 0-0.7 1.9-0.7 2.6 1.9 4.5 5.1 8.4 5.1 12.9 0.7 3.2 0 6.4-2.6 9-3.2 3.2-7.1 4.5-11 7.1-3.2 1.9-7 3.8-10.2 5.1-0.6 0-2.6 1.9-3.2 0 0-3.2 1.3-7.1 2.6-10.3 1.9-4.6 0.6-10.3 4.5-14.9-0.6 0-1.3 0-1.3-0.6 3.8-14.2 5.8-28.3 6.4-42.5 0-5.2-1.9-11-4.5-16.1-2-2.6-5.2-4.5-8.4-3.2-1.9 0.7-2.6 3.2-2.6 5.2-3.8 18.7-4.5 36-6.5 54.1-1.3 12.9-3.8 25.8-7.7 38.6-2.6 6.4-10.9 9-16.7 12.2-2 1.3-4.5 2.6-6.5 3.2-2.6 1.3-6.4 3.8-9.7 4.5-1.3 0 0 1.9-1.3 1.9h-1.9c-0.7 1.3 0 2.6 0.6 3.2 2.6 0.7 3.3 3.2 5.8 3.9 2.6 0.6 5.2 1.3 7.1 0.6 4.4-1.9 8.9-5.9 14.1-5.9 1.3 0 0.7 2 0.7 3.3-4.5 11.6-11 22.5-14.2 34.7 0 1.3-1.9 0-1.9 1.3v2c-2.6 1.9-3.9 4.5-5.2 7.1-4.5 5.8-11 9-15.4 14.2 2 0.6 3.9 0 5.8-0.7 4.5-1.3 8.4-4.5 12.2-7.8 7.7-6.4 14.2-14.8 21.3-23.2v-2.5c0-1.3 1.3-0.6 1.9-0.6v-1.3c0.6-0.7 1.9-0.7 1.9-0.7 0.6-1.9 2-3.9 2.6-6.4 0-0.6 1.3-2.5 2-3.8 3.9-5.1 3.2-11.6 6.4-17.4 9.1 10.3 19.4 18.7 28.4 29.6 7.1 9 12.2 18 19.9 26.4 1.3 2 3.8 3.9 7.1 3.9 5.1-0.7 10.3-0.7 14.2-2.6 2-1.3 4.5-0.6 6.4-2.6 1.9-1.2 4.6 0.1 6.5-1.2z" fill="#CF111B" p-id="4408"></path><path d="M122.3 605c0.6 0 1.3 0.6 2.6 1.9 1.3 1.9 4.5 0 5.1-1.9 1.9-7.1 4.5-12.9 6.4-19.9 1.3-5.2 5.8-9.7 7.7-15.5 0.7-1.9 0.7-4.5 0.7-6.4 1.3-2.6 1.9-5.8 2.5-8.4 2-5.8 5.2-11.6 4.5-18 0-1.3 2 0 2-1.3s-0.7-3.2 0-4.5c1.9-2 1.3-4.6 2.6-6.5 1.3-1.3 0-3.8 1.9-5.8 1.3-0.6 0-4.5 1.3-5.8 1.9-2.6 1.3-5.2 2.6-7.1 1.9-6.4 1.9-14.1 3.2-21.2 5.8-1.9 12.2-1.3 18-3.8 1.9-0.7 3.9-1.3 5.8-2 6.5-5.8 12.2-12.2 18.7-18.6 0.6-0.7 0-2 1.2-2.6h1.3v-1.3c0.6-0.6 1.3-0.6 1.9-0.6-0.6-2 1.3-2.6 1.9-2.6 2-0.7 2-3.3 4.5-2.6 0.6 0 0-1.9 1.3-1.9 1.9 0 3.2-2 5.1-2.6 7-3.2 13.5-7.7 20.6-11.6 5.8-3.2 5.8-12.2 3.9-18.6-0.7-1.3-3.9-1.3-3.9-3.2-1.9 0-3.9-1.3-5.2-1.9-7.1-6.4-13.5-12.9-19.3-20.6-1.9-2.6-1.9-5.2-2.6-8.4-1.3-3.9-4.5-4.5-7.7-3.9-2.6 0.6-3.2 3.2-3.2 4.5-5.9 20-11.6 38.6-12.9 59.3-12.2 9.6-25.7 16.1-36.7 27.7-2.6 1.9-5.8 3.8-7.1 6.4-1.9 2.6-3.9 5.8-2.5 9 1.2 3.9 4.5 7.1 3.2 11.6-4.5 16.1-8.3 32.2-16.7 46.4-2.6-16.7-8.4-32.2-11.5-48.3-10.3 24.5-9 51.5-9 77.9 0 6.5-2.6 12.2-2.6 18.7v1.9c0.7 5.7 5.2 8.9 10.4 12.1z m99.8-189.9c0.7-5.1 0.6-10.3 0-15.5 5.2 5.8 9.6 14.2 5.8 21.9-1.3 3.2-7.1 3.8-9 7.7 0-5.1 2.6-9.6 3.2-14.1zM481.6 560.6c0.7-4.5 2.6-8.4 2.6-12.9-2-20-3.3-40-3.3-59.9 0-0.6 0.6-0.6 1.3-0.6 0-1.3-1.9-0.6-1.3-2 3.8-3.8-0.6-9 2.6-14.2 2-1.9 0-5.1 0.7-8.4 0-0.7 0.6-1.3 1.9-1.3 0.6-3.3 0-5.8 1.3-9 1.3-3.3 1.3-8.4 0-11.6-0.7-1.3-1.3-3.2-3.2-3.9-2.6 0-5.8-1.3-8.4-0.6-11 3.9-22 8.4-32.9 13.5 0 0-0.6 0.7-1.3 1.3-4.5 1.3-9.6 4.5-14.2 7.1-0.7 0-1.9 0-1.9-0.6 0.7-1.3 1.9-3.9 3.9-3.9v-1.2c0-0.7 0.7-0.4 1.3-0.7 1.3-0.7 2-2 3.2-3.2 1.9-1.3 4.5-2 6.4-3.2 3.3-2.6 5.8-5.2 9-7.7 1.9-0.7 3.9-2.6 5.8-3.9 6.5-3.8 12.3-7 16.8-12.2 1.9-3.2 0.7-7.7-2.6-9-3.2-1.3-5.1-4.5-9-4.5 0.6 4.5 1.3 9.7-2.5 12.2-2 0.6-2.6 1.9-3.9 2.6-1.9 0-2.5 1.3-3.8 1.9-1.3 0-3.9 0.6-3.9-0.6 0.7-3.8 1.3-7.7 1.9-12.2 1.3-6.4 2-12.9 0.7-19.3 0-2.5-1.3-9-4.5-9-2.6 0.6-3.9 6.5-5.8 10.3-0.6 1.3-1.3 2.6-2 3.9-5.2 8.4-7.7 16.8-9.7 25.1-1.3 4.5 0 10.3-3.2 12.9-14.8 10.9-30.9 18.7-47 25.8-4.6 1.9-8.4 3.8-12.9 5.8-0.7 0 0.6 2 1.3 2.6 5.8 1.9 12.9 3.8 18.6 1.2 1.3-0.7 3.2-1.2 5.2-1.2 0.6 0 0.6 0.6 0.6 1.2 9-3.2 18.7-6.4 27.1-11.6 0.6 0 1.9 0 1.9 0.7-0.7 1.3-1.3 3.2-1.9 4.5-3.3 4.6-7.8 6.4-11.6 9.7-3.8 3.9-7.7 7.1-12.8 10.3-3.9 3.2-6.5 5.8-9.7 9.7-3.2 4.5-6.5 9-8.4 13.5-2.6 5.2-3.9 10.3-7.1 14.2-6.5 8.3-9.6 17.4-8.4 27 0 3.2 3.2 5.8 4.5 9 0.7 0 2.6 0.6 3.2 0 3.8-10.3 1.9-21.3 5.1-31.6 0.6-3.8 1.9-7.1 3.2-10.9 1.9-3.8 5.8-7 9.7-7.7 3.2-1.3 6.4-2.6 9-4.5h2c0-0.6 0-1.3 0.6-1.3 1.3 0 2.6-0.7 3.2 0 1.9 2.6 4.5 3.2 6.4 5.8 1.3 0.7 3.2 0.7 4.5 0.7 0-0.7 0-1.4 0.7-1.4 1.9 0 2.5-1.9 3.2-1.3 3.2 1.3 0 6.5 1.9 9 1.3 1.3 3.9 0.7 3.2 3.3-2 4.5-4.5 9-7.1 13.5 0 0.7-1.9 2-2.6 2.6-0.7 1.9-1.9 3.8-1.9 6.4 0.7 0 1.2 0 1.2 0.6 0 2.6 0 5.8 2 6.5 5.1 1.3 7.7-5.2 12.8-5.8 0.7 0 2 1.3 1.4 2.6-2 5.2 0 10.9 1.9 15.4 0.7 1.3 2 4.5 3.2 2 4.5-10.4 0.6-21.3 6.4-31.6 0.7-0.7 2-0.7 2-0.7 0.6-3.8 3.2-7.1 1.9-10.9-1.3-2.6-1.3-5.8-3.8-7.7-0.6 0-1.9-0.7-2.6-0.7-1.2-0.6-1.9-3.2-3.9-2.6 0-2-3.2-2-2.6-3.9 6.4-6.4 12.9-11.6 17.4-19.3 1.2-2.6 0.6-5.2-1.9-5.8-5.8-1.9-14.8-3.9-18 3.9-2.6 6.4-10.3 11.6-18.1 11.6-0.6 0-1.3-0.7-0.6-1.3 6.5-5.8 11.6-11 18.7-16.1 0.6-0.7 0.6-2.6 1.3-3.2 1.9 0 2.6-1.9 4.5-2.6 1.3 0 2-1.9 3.2-3.2 11.6-6.4 23.2-11 34.8-16.7 1.3-0.6 3.9-1.9 5.1-1.3 0.6 0.7 2 0 2 1.3 0.6 3.8 3.2 7.1 1.2 10.3-0.6 1.9 0 3.8-0.6 5.1-2.6 10.3-1.3 21.3-1.3 31.5-0.7 13.5-0.7 27-1.3 40.6 0 6.4 0 12.8-2.5 19.3-3.9 9-15.5 3.2-21.9-0.6 1.2 7.7 10.3 11.6 16.1 15.4 3.2 1.9 7.2 3.9 11 1.3 4.6-3.3 4.6-9.1 5.3-13.6z m-56-37.4c0.7-0.6 1.3-0.6 1.9-0.6 0.6 0 0.6 0.6 0.6 1.3-0.6 0.6-0.6 0.6-1.3 1.2-0.6 0-1.3 0-1.3-0.6 0.1-0.6-0.4-0.8 0.1-1.3zM140.8 641.3h1.6c1.4 0 2.4 0.2 3.3 0.7 0.8 0.5 1.4 1 1.6 1.6 0.3 0.6 0.4 2.2 0.4 4.6v13.7h-17.2v-13.7c0-2.4 0.1-3.9 0.4-4.5 0.4-0.8 0.9-1.4 1.5-1.7 0.9-0.5 2-0.8 3.4-0.8h1.6V640H112v1.3h1.6c1.4 0 2.4 0.2 3.2 0.7 0.8 0.5 1.3 1 1.6 1.6 0.3 0.6 0.4 2.2 0.4 4.6v31.9c0 2.4-0.1 3.9-0.4 4.5-0.3 0.8-0.8 1.4-1.4 1.7-0.9 0.5-2 0.8-3.4 0.8H112v1.3h25.4v-1.3h-1.6c-1.4 0-2.4-0.2-3.2-0.7-0.8-0.5-1.3-1-1.6-1.6-0.3-0.6-0.4-2.2-0.4-4.6v-15h17.2v15c0 2.4-0.2 3.9-0.4 4.5-0.4 0.8-0.8 1.4-1.5 1.7-0.8 0.5-2 0.8-3.4 0.8h-1.6v1.3h25.3v-1.3h-1.6c-1.3 0-2.4-0.2-3.3-0.7-0.8-0.5-1.3-1-1.6-1.6-0.3-0.6-0.4-2.2-0.4-4.6v-31.9c0-2.4 0.1-3.9 0.4-4.5 0.4-0.8 0.9-1.4 1.5-1.7 0.8-0.5 2-0.8 3.4-0.8h1.6V640h-25.3v1.3zM206 641.3c1.9 0 3.5 0.3 4.5 0.8 0.7 0.4 1.3 1 1.7 1.9 0.4 0.9 0.7 2.5 0.7 4.7v19.8c0 5.1-0.5 8.8-1.4 10.8-0.9 2.1-2.3 3.7-4.1 4.9-1.9 1.2-4.1 1.8-6.7 1.8-2.3 0-4.2-0.5-5.7-1.4-1.5-0.9-2.6-2.1-3.2-3.5-0.7-1.4-1-4.3-1-8.6v-23.7c0-2.8 0.2-4.5 0.5-5.2 0.3-0.7 0.8-1.2 1.5-1.6 0.7-0.4 2-0.6 3.9-0.6h1.3V640h-25v1.3c2 0 3.5 0.2 4.2 0.6 0.8 0.4 1.3 0.9 1.6 1.6 0.3 0.7 0.5 2.4 0.5 5.2v23.7c0 4 0.6 7.2 1.9 9.6 1.3 2.4 3.5 4.3 6.6 5.9 2.3 1.1 5.5 1.7 9.7 1.7 5 0 9-1 11.9-3.2 2.9-2.1 4.7-4.4 5.5-7 0.7-2.5 1.1-6.7 1.1-12.3v-18.4c0-2 0.2-3.4 0.5-4.1 0.4-1.1 1.1-1.9 2-2.5 0.9-0.5 2-0.8 3.4-0.8h1V640H206v1.3zM262.9 641.3c2.7 0 4.6 0.6 5.8 2 0.8 1 1.2 3 1.2 5.9V670l-24-30h-17.2v1.3c1.5 0.1 2.6 0.3 3.4 0.7 0.8 0.4 1.7 1.3 2.7 2.6l1 1.3v34.2c0 2.6-0.5 4.4-1.6 5.5-1 1.1-2.9 1.6-5.6 1.6v1.3h17.2v-1.3h-1.1c-1.6 0-3.1-0.5-4.4-1.5-1.3-1-1.9-2.9-1.9-5.6v-30.8l32.8 40.4h1.2v-40.4c0-2.3 0.2-3.9 0.6-4.9 0.4-0.9 0.9-1.6 1.7-2 0.7-0.4 2.1-0.8 4.1-1V640h-16v1.3zM328.8 678.8L311.3 639h-0.7l-17.3 38.7c-1.7 3.7-3 6.1-4.1 7.3-1.1 1.2-2.6 1.9-4.3 2.2v1.3H301v-1.3c-2.5-0.2-4.1-0.5-4.8-0.9-1.1-0.6-1.7-1.6-1.7-3 0-1 0.3-2.3 1-3.9l2-4.7h17.1l2.6 6c0.7 1.6 1 2.5 1.1 2.7 0.1 0.4 0.2 0.9 0.2 1.3 0 0.7-0.3 1.3-0.8 1.7-0.8 0.5-2.1 0.8-4 0.8h-1v1.3h23.5v-1.3c-1.5-0.1-2.6-0.6-3.4-1.3-1-1-2.3-3.3-4-7.1z m-29.9-6.7l7.4-16.7 7.2 16.7h-14.6zM376 641.3c2.7 0 4.6 0.6 5.8 2 0.8 1 1.3 3 1.3 5.9V670l-24-30h-17.2v1.3c1.5 0.1 2.6 0.3 3.4 0.7 0.8 0.4 1.7 1.3 2.7 2.6l1 1.3v34.2c0 2.6-0.5 4.4-1.6 5.5-1.1 1.1-2.9 1.6-5.6 1.6v1.3H359v-1.3h-1c-1.6 0-3.1-0.5-4.4-1.5-1.3-1-1.9-2.9-1.9-5.6v-30.8l32.8 40.4h1.2v-40.4c0-2.3 0.2-3.9 0.6-4.9 0.4-0.9 0.9-1.6 1.6-2 0.7-0.4 2.1-0.8 4.2-1V640h-16v1.3zM454.3 641.3c2 0 3.5 0.3 4.6 0.8 0.7 0.4 1.3 1 1.7 1.9 0.5 0.9 0.7 2.5 0.7 4.7v19.8c0 5.1-0.5 8.8-1.4 10.8-0.9 2.1-2.3 3.7-4.2 4.9-1.9 1.2-4.1 1.8-6.7 1.8-2.3 0-4.2-0.5-5.7-1.4-1.5-0.9-2.6-2.1-3.2-3.5-0.6-1.4-1-4.3-1-8.6v-23.7c0-2.8 0.1-4.5 0.4-5.2 0.3-0.7 0.8-1.2 1.5-1.6 0.7-0.4 2-0.6 3.9-0.6h1.2V640h-25v1.3c2 0 3.5 0.2 4.2 0.6 0.8 0.4 1.3 0.9 1.6 1.6 0.3 0.7 0.5 2.4 0.5 5.2v23.7c0 4 0.6 7.2 1.9 9.6 1.3 2.4 3.5 4.3 6.6 5.9 2.3 1.1 5.5 1.7 9.7 1.7 5 0 9-1 11.9-3.2 2.9-2.1 4.7-4.4 5.5-7 0.8-2.5 1.1-6.7 1.1-12.3v-18.4c0-2 0.2-3.4 0.5-4.1 0.4-1.1 1.1-1.9 2-2.5 0.9-0.5 2-0.8 3.4-0.8h1V640h-16.8v1.3zM511.2 641.3c2.7 0 4.6 0.6 5.8 2 0.8 1 1.2 3 1.2 5.9V670l-24-30H477v1.3c1.5 0.1 2.6 0.3 3.4 0.7 0.8 0.4 1.7 1.3 2.7 2.6l1 1.3v34.2c0 2.6-0.5 4.4-1.6 5.5-1 1.1-2.9 1.6-5.6 1.6v1.3h17.2v-1.3H493c-1.6 0-3.1-0.5-4.4-1.5-1.3-1-1.9-2.9-1.9-5.6v-30.8l32.8 40.4h1.2v-40.4c0-2.3 0.2-3.9 0.6-4.9 0.4-0.9 0.9-1.6 1.6-2 0.7-0.4 2.1-0.8 4.1-1V640h-16v1.3zM534 641.3h1.6c1.3 0 2.4 0.2 3.2 0.7 0.8 0.5 1.3 1 1.6 1.6 0.3 0.6 0.4 2.2 0.4 4.6v31.9c0 2.4-0.1 3.9-0.4 4.5-0.3 0.8-0.8 1.4-1.4 1.7-0.9 0.5-2 0.8-3.4 0.8H534v1.3h25.4v-1.3h-1.6c-1.4 0-2.4-0.2-3.2-0.7-0.8-0.5-1.3-1-1.6-1.6-0.3-0.6-0.4-2.2-0.4-4.6v-31.9c0-2.4 0.1-3.9 0.4-4.5 0.3-0.8 0.8-1.4 1.5-1.7 0.8-0.5 2-0.8 3.4-0.8h1.6V640H534v1.3zM601 641.3c1.7 0 3.1 0.2 4.1 0.6 0.7 0.3 1.3 0.7 1.7 1.2 0.4 0.6 0.6 1.2 0.6 1.9 0 0.6-0.1 1.4-0.4 2.3-0.3 0.9-1 2.6-2.1 5.2l-9.6 21.5-10.4-24.2c-1.1-2.5-1.7-4.1-1.9-4.7-0.2-0.6-0.3-1.1-0.3-1.5 0-0.7 0.3-1.2 0.8-1.6 0.8-0.5 2.2-0.8 4.3-0.8h0.8V640h-23.3v1.3c1.9 0.2 3.2 0.7 3.9 1.6 0.7 0.8 2 3.5 4 8.2l16.6 38.6h1.2l16.7-37.1c2-4.4 3.5-7.2 4.5-8.4 1.4-1.6 3-2.5 4.7-2.8V640H601v1.3zM659.7 682.7c-2.7 2.1-6.4 3.2-10.9 3.2h-2.9c-1.4 0-2.4-0.2-3-0.6-0.6-0.4-1-0.9-1.3-1.5-0.2-0.6-0.3-2.2-0.3-4.9v-13.7c2.3 0 4.1 0.3 5.3 0.9 1.2 0.6 2.3 1.8 3.2 3.6 0.9 1.8 1.5 4 1.8 6.8h1.4v-25.4h-1.4c-0.4 3.8-1.3 6.6-2.7 8.6-1.4 1.9-3.6 2.9-6.7 2.9h-1v-19.8h5c3.7 0 6.2 0.2 7.5 0.7 2.3 0.7 4.1 1.8 5.3 3.4 1.2 1.5 2.2 4 2.9 7.5h1.4V640h-40.6v1.3h1.6c1.6 0 2.8 0.3 3.7 1 0.6 0.4 1.1 1.1 1.3 1.9 0.1 0.5 0.2 1.8 0.2 4v31.9c0 2.4-0.1 3.9-0.4 4.5-0.3 0.8-0.8 1.4-1.4 1.7-0.9 0.5-2 0.8-3.4 0.8h-1.6v1.3h41.9l2.2-15.4h-1.3c-1.1 4.4-3.1 7.6-5.8 9.7zM720.7 682L709 665.6c2.9-0.7 5.2-1.8 6.9-3.3 2.6-2.3 3.9-5.3 3.9-8.9 0-2.9-0.9-5.5-2.6-7.7-1.7-2.2-3.9-3.7-6.6-4.5-2.7-0.8-7-1.2-12.9-1.2h-22.5v1.3c2.2 0 3.7 0.2 4.5 0.6 0.8 0.4 1.4 0.9 1.7 1.6 0.3 0.7 0.5 2.3 0.5 5V680c0 2.6-0.2 4.3-0.5 4.9-0.3 0.7-0.9 1.2-1.7 1.6-0.8 0.4-2.3 0.6-4.5 0.6v1.3H700v-1.3c-2.2 0-3.7-0.2-4.5-0.6-0.8-0.4-1.4-1-1.7-1.6-0.3-0.7-0.5-2.3-0.5-5v-13.6h3.2l15.6 22.1h15.3v-1.3c-1.3-0.1-2.4-0.5-3.4-1.2-0.6-0.4-1.7-1.8-3.3-3.9z m-14-22.3c-0.9 1.6-2.2 2.7-3.9 3.3-1.6 0.6-4.1 0.9-7.4 0.9h-2v-21.3h3.8c3.8 0 6.6 0.9 8.4 2.7 1.7 1.7 2.6 4.5 2.6 8.2-0.1 2.5-0.6 4.6-1.5 6.2zM753.8 658.4c-4.1-2-6.7-3.4-7.8-4.2-1.5-1.1-2.6-2.2-3.3-3.3-0.5-0.8-0.7-1.8-0.7-2.9 0-1.7 0.7-3.2 2.1-4.5 1.4-1.3 3.3-2 5.8-2 3.1 0 6.1 1.2 8.8 3.7 2.7 2.5 4.4 5.7 5.1 9.8h1.5l-0.4-16.2h-1.1c-0.3 1.4-0.6 2.4-1 2.7-0.3 0.4-0.8 0.6-1.5 0.6s-1.8-0.4-3.4-1.2c-1.6-0.8-3-1.3-4.1-1.6-1.5-0.4-3-0.6-4.6-0.6-4.3 0-7.9 1.4-10.7 4.1-2.8 2.7-4.2 6-4.2 9.9 0 2.3 0.5 4.3 1.5 6.2 1 1.9 2.5 3.6 4.5 5.1 1.9 1.6 5.1 3.4 9.5 5.6 3.1 1.5 5.3 2.8 6.6 3.8 1.2 1 2.2 2 2.8 3.1 0.6 1 0.9 2.2 0.9 3.3 0 1.9-0.8 3.6-2.4 5.1-1.6 1.4-3.7 2.2-6.4 2.2-3.5 0-6.7-1.3-9.7-4.1-3-2.7-5-6.6-6.1-11.8h-1.3v18.3h1.3c0.4-1 1-1.7 1.7-2.2 0.7-0.5 1.3-0.7 2-0.7 0.8 0 1.7 0.2 2.8 0.7 2 0.9 3.8 1.4 5.1 1.8 1.3 0.3 2.8 0.5 4.3 0.5 4.8 0 8.9-1.4 12-4.4 3.2-2.9 4.8-6.4 4.8-10.5 0-3.2-1-6-2.9-8.5-2-2.4-5.8-5-11.5-7.8zM776.3 641.3h1.6c1.4 0 2.4 0.2 3.2 0.7 0.8 0.5 1.3 1 1.6 1.6 0.3 0.6 0.4 2.2 0.4 4.6v31.9c0 2.4-0.1 3.9-0.4 4.5-0.3 0.8-0.8 1.4-1.4 1.7-0.9 0.5-2 0.8-3.4 0.8h-1.6v1.3h25.4v-1.3h-1.6c-1.4 0-2.4-0.2-3.2-0.7-0.8-0.5-1.3-1-1.6-1.6-0.3-0.6-0.4-2.2-0.4-4.6v-31.9c0-2.4 0.1-3.9 0.4-4.5 0.4-0.8 0.8-1.4 1.5-1.7 0.9-0.5 2-0.8 3.4-0.8h1.6V640h-25.4v1.3zM809.7 653.1h1.4c0.5-3.6 1.8-6.3 3.9-8.3 1.5-1.4 3.8-2.1 7.1-2.1h3.5v37.4c0 2.4-0.1 3.9-0.4 4.5-0.4 0.8-0.9 1.4-1.5 1.7-0.9 0.5-2 0.8-3.4 0.8h-1.6v1.3h25.4v-1.3h-1.6c-1.4 0-2.5-0.2-3.3-0.7-0.8-0.5-1.3-1-1.6-1.6-0.3-0.6-0.4-2.2-0.4-4.6v-37.4h3.6c2.3 0 3.9 0.2 4.7 0.7 1.6 0.8 2.9 1.8 3.8 3.2 0.9 1.3 1.8 3.5 2.5 6.5h1.3V640h-43.6v13.1zM896.8 641.3c2.2 0.1 3.7 0.5 4.5 1.1 0.6 0.4 0.9 1 0.9 1.6 0 1.2-1.1 3.6-3.3 7.1l-8.7 14.6-8.8-16.1c-1.9-3.5-2.9-5.6-2.9-6.5 0-0.5 0.3-0.9 0.8-1.3 0.6-0.4 1.5-0.6 3-0.6h1V640H860v1.3c1.6 0 2.8 0.4 3.7 1.1 0.9 0.7 2.5 3.1 4.8 7.2l11.4 20.8v9.7c0 2.4-0.1 3.9-0.4 4.5-0.4 0.8-0.9 1.4-1.5 1.7-0.8 0.5-2 0.8-3.4 0.8H872v1.3h27.2v-1.3h-2.7c-1.3 0-2.3-0.2-3.1-0.7-0.8-0.5-1.3-1-1.6-1.6-0.2-0.6-0.4-2.2-0.4-4.7v-11.7l10.5-17.6c2.6-4.5 4.5-7.2 5.6-8.2 0.9-0.7 2.1-1.2 3.7-1.4V640h-14.8v1.3z" fill="#CF111B" p-id="4409"></path></svg>